<svg xmlns="http://www.w3.org/2000/svg" preserveAspectRatio="xMinYMin slice" width="100%" height="100%"><g id="Layer_2" data-name="Layer 2"><g id="Layer_2-2" data-name="Layer 2"><path d="M0,.93749c18.64541-.0237,37.2963-.2991,55.9324.10578A79.27863,79.27863,0,0,0,69.61537.2266c4.95194-.74238,9.5689,1.23007,13.56324,4.02646,2.20552,1.54409,3.55306,1.33558,5.62617-.09719C94.25222.391,100.36765-1.19272,106.78221.99394c5.37022,1.83065,10.45338-.58027,15.73187-.23164,13.75142.90823,27.58219.51436,41.331.58664,13.22929.06958,26.55892-.18829,39.83952-.425C217.94186.66982,232.20772.93136,246.468.78845c3.85587-.03864,6.75517,1.75939,10.089,3.14436,2.58927,1.07566,5.6968-3.35061,9.7307-3.21606,11.14267.37172,22.30394.186,33.45786.22074v39.9732c-1.65418,3.909-5.12849,5.078-8.84649,5.49683-3.03914.34242-4.30452,1.7835-4.6212,4.73883-.71552,6.67783-3.73536,11.98052-9.73911,15.386a7.43626,7.43626,0,0,0-3.07289,3.18634c-3.07774,6.21793-8.4956,7.724-14.93767,7.85227-9.732.19375-19.39112-.87127-29.20622-.27246a250.17148,250.17148,0,0,1-35.80994.079,137.26,137.26,0,0,0-23.65451-.3695,264.92349,264.92349,0,0,1-47.26276.257c-8.8942-.83462-17.55185,1.15688-26.2627.16767-9.05843-1.02867-18.15716.63062-27.174-.77441-2.72981-.42541-5.26475.87911-7.89549.79573-9.80972-.31095-19.54993-1.67673-29.45037-.13364-4.165.64916-8.449-1.55352-12.06661-4.1094-5.09328-3.59842-7.57822-8.273-5.85039-14.63954a15.94381,15.94381,0,0,0,.66339-3.92351c.10588-6.44133-.3709-7.07332-6.78394-8.25289C4.31724,45.75906,1.47069,44.32908,0,40.91069Z" fill="#fddf82"/><path d="M238.895,54.5831c1.43535-4.06338,2.72158-6.91672,3.42641-9.90711.80948-3.43432,2.95605-3.87332,5.913-3.68037,3.6493.23814,2.46667,2.931,2.5093,4.8083.12449,5.48052.01538,10.966.04679,16.44927.01146,2.0015-.14582,3.54127-2.83623,3.6011-2.83114.06292-3.337-1.3634-3.23839-3.70586a21.12473,21.12473,0,0,0-.77333-7.37414c-.85622,2.2523-1.69336,4.51211-2.57693,6.75362-.42792,1.08563-.88292,2.16075-2.33519,2.25459-1.6296.10531-2.405-.85779-2.92915-2.18274a27.76088,27.76088,0,0,0-3.298-6.57213c0,2.43278-.05333,4.8671.01634,7.2979.05922,2.0656-.241,3.51684-2.889,3.51522-2.44108-.00149-3.1633-1.03-3.13109-3.30058.08484-5.98076.01465-11.96357.043-17.94537.0077-1.62318-.296-3.6134,2.26814-3.53173,2.01283.06412,4.4736-.93445,5.526,1.9608C235.88051,46.44534,237.15218,49.85672,238.895,54.5831Z" fill="#cc5d2b"/><path d="M89.94776,53.9085C88.94955,56.51531,87.918,59.11,86.968,61.73422a2.57414,2.57414,0,0,1-2.49254,2.0305,2.49793,2.49793,0,0,1-2.55624-1.93486c-.98423-2.62364-2.00589-5.23325-3.26036-8.49339,0,3.49342-.0481,6.26259.01577,9.02919.048,2.07729-.27591,3.50284-2.92845,3.47573-2.50659-.02565-3.09418-1.20122-3.06852-3.39585.068-5.8213.00189-11.644.03572-17.46589.01025-1.76621-.4209-3.85316,2.44887-3.94347,2.37545-.07476,4.61123-.27833,5.53435,2.77222.99187,3.27768,2.3093,6.45683,3.87921,10.76055,1.48265-4.13876,2.746-7.17692,3.64766-10.31886.91274-3.1805,3.12577-3.41238,5.80721-3.22284,3.09547.21879,2.57678,2.50723,2.5945,4.41363.051,5.48894.00446,10.97873.02433,16.468.00783,2.16615-.17389,3.92272-3.11992,3.94276-2.8951.01967-3.29681-1.71845-3.26282-3.86929.04175-2.64185.24173-5.28122.37331-7.92166Z" fill="#cb5c29"/><path d="M113.74369,54.48758c1.52523-4.23638,2.82492-7.25947,3.68766-10.40251.92059-3.35383,3.34132-3.157,5.88519-3.04274,3.25867.14637,2.375,2.63274,2.402,4.44.08463,5.65713-.01563,11.317.06673,16.97415.03234,2.2212-.59368,3.36512-3.07726,3.38506-2.58744.02077-3.05068-1.31515-2.99439-3.44593a36.05339,36.05339,0,0,0-.57871-8.39674,22.47923,22.47923,0,0,1-1.27315,3.03529c-1.3505,2.26575-.57338,6.5272-4.15915,6.556-3.963.03175-2.97992-4.49942-4.46366-6.84334-.5882-.92916-.25013-2.38439-1.44626-2.84145,0,2.68323-.06212,5.40531.01937,8.1231.067,2.23294-.14,3.85462-3.10571,3.819-3.10242-.03724-2.91971-1.95246-2.91394-4.01684.01584-5.65828-.031-11.3169.01956-16.97479.01385-1.55-.537-3.64136,2.03985-3.74067,2.21466-.08535,4.7631-.86734,5.83352,2.26714C110.811,46.67837,112.07,49.92893,113.74369,54.48758Z" fill="#cb5c29"/><path d="M209.7147,22.17278c0,3.79011-.07085,6.60141.02264,9.4072.07345,2.204-.53457,3.36071-3.05449,3.37023-2.61837.00989-2.98029-1.33829-2.95956-3.448.05725-5.82687-.01323-11.65493.03307-17.482.0124-1.56017-.53125-3.622,2.0014-3.8111,2.30434-.17206,4.79278-.539,5.87115,2.40923,1.19684,3.27207,2.4078,6.539,4.0573,11.01466,1.50492-4.06539,2.91122-7.10656,3.73517-10.29812.86691-3.35793,3.123-3.38588,5.7437-3.18751,3.09916.23455,2.49186,2.5846,2.50885,4.47525.05086,5.66049-.03406,11.3224.03916,16.98239.02856,2.20621-.5412,3.37212-3.07062,3.34051-2.55494-.03195-3.06464-1.29712-2.99723-3.4531a37.80343,37.80343,0,0,0-.53206-8.41535c-.91377,2.42437-1.79713,4.86086-2.75412,7.26806-.48109,1.21011-.85321,2.51033-2.62861,2.54939-1.973.04337-2.4721-1.24582-2.9962-2.72687C211.86343,27.70671,210.89514,25.28028,209.7147,22.17278Z" fill="#cb5c29"/><path d="M123.11431,20.59072c0,4.79039-.08984,8.08365.02866,11.36937.09348,2.59207-1.32622,2.95354-3.45323,2.97728-2.28523.02551-2.79918-1.11249-2.7795-3.09711.05942-5.99154.026-11.984.02989-17.97606.0011-1.69768-.10287-3.52243,2.29113-3.65019,2.10674-.11241,4.34041-.63816,5.55523,2.04354A61.35624,61.35624,0,0,0,130.753,22.88078c0-3.17331.08193-6.34944-.02712-9.519-.08058-2.34221.83626-3.25069,3.20724-3.26029,2.52137-.01021,3.06462,1.21113,3.03418,3.41018-.08061,5.82458.023,11.65171-.05856,17.47625-.02081,1.4874.72858,3.68225-1.88541,3.82835-2.20581.12327-4.63521.84439-5.9389-2.156C127.50287,29.02042,125.57985,25.52893,123.11431,20.59072Z" fill="#cb5c29"/><path d="M171.84716,65.27869c-4.79894,1.45855-7.83547.368-9.4105-4.16292-.42711-1.22867-.83682-3.32785-2.76049-2.93175-1.71159.35242-1.05742,2.21613-1.02853,3.40857.066,2.72315-.4997,4.346-3.81948,4.28125-3.46136-.06743-3.02719-2.24636-3.02944-4.379-.006-5.63544.06909-11.272-.02708-16.90578-.04147-2.42794.627-3.755,3.34183-3.59027,3.294.1999,6.6125-.252,9.88074.65706,5.048,1.404,8.16476,6.64142,5.13052,10.66076-3.2182,4.263-1.48132,7.00747.57981,10.34566A22.40182,22.40182,0,0,1,171.84716,65.27869Z" fill="#cb5c2a"/><path d="M112.80965,22.86011c-.08777,7.521-4.51482,12.28522-11.39936,12.26748-7.21306-.0186-11.49369-4.74415-11.46784-12.65981.02574-7.88284,4.42163-12.63274,11.608-12.54276C108.62821,10.01362,112.90227,14.92387,112.80965,22.86011Z" fill="#cb5c29"/><path d="M45.08722,23.20562c.0016,2.49051-.00612,4.981.00393,7.47148.00884,2.19009.30007,4.27751-3.12381,4.29494-3.32065.0169-3.12417-1.89462-3.30693-4.17226-.1722-2.146,1.44891-5.25992-2.71644-5.7361-3.86788-.44218-4.99365,1.25508-4.73577,4.84881.1655,2.30636.89568,5.28293-3.31476,5.03546-2.023-.11889-3.057-.66339-3.03523-2.85784.06265-6.30858.07943-12.61912-.0134-18.927-.03643-2.47629,1.14-3.07088,3.36079-3.07863,2.48779-.00867,2.97918,1.24581,3.11887,3.41129.12456,1.93108-1.23693,4.51118,1.70338,5.58973,3.40837,1.25023,5.50662-.31572,5.69572-4.13781.10769-2.17687-.78065-4.81071,3.08725-4.86645,4.24192-.06115,3.1763,2.867,3.25385,5.15549C45.15459,17.89022,45.08562,20.5491,45.08722,23.20562Z" fill="#cb5c2a"/><path d="M47.04763,51.20246a13.02282,13.02282,0,0,1,.02337-2.82595c.96552-2.54846-2.65543-7.40455,3.507-7.3359,5.78861.06447,2.65778,4.58539,3.16512,7.08878.5185,2.5584.10058,5.29818.18538,7.9556.07006,2.19543.79944,3.981,3.417,4.00882,2.57582.02742,3.4855-1.64422,3.543-3.88353.10245-3.98735.16526-7.97891.09706-11.96619-.039-2.28217.71835-3.33785,3.15749-3.267,2.16415.06294,3.60053.60733,3.49313,3.05683-.21818,4.97591-.10746,10.0016-.80709,14.91057-.63084,4.42626-3.6433,6.85276-8.32323,7.08109-4.7437.23145-8.59666-.92491-10.392-5.81168A24.35566,24.35566,0,0,1,47.04763,51.20246Z" fill="#cb5d2a"/><path d="M130.8231,53.37157l-.00005-.4985c-.00384-13.117-.00779-13.07379,13.00181-11.88512,2.00663.18334,3.04306.685,3.0326,2.89389-.01012,2.13648-.86208,3.06237-2.97251,2.92367a14.91667,14.91667,0,0,0-2.48989.01439c-1.49513.15328-3.81688-.64492-3.5668,2.05542.22148,2.39128,2.34068,1.147,3.61955,1.25862,2.0033.17487,4.06517-.19272,4.19631,2.86288.13406,3.12328-1.87493,2.86082-3.9296,2.97671-1.4854.08377-3.75283-.72824-3.88219,1.8322-.15386,3.04487,2.3907,1.98482,3.99579,2.19037,1.14673.14681,2.32888.01134,3.4777.14861,1.90028.227,1.662,1.75481,1.682,3.05764.01891,1.23517-.19729,2.36076-1.75746,2.50632-.49517.0462-.99392.05245-1.49.09076C130.82792,66.79629,130.82795,66.79662,130.8231,53.37157Z" fill="#cc5d2a"/><path d="M213.28886,41.13342c3.15252-.76948,4.40437.78221,5.17882,3.6874,1.49679,5.615,3.4698,11.10223,5.00321,16.70873.34036,1.24441,2.39358,3.39132-.33155,4.04591-1.97682.47481-4.89528,1.36984-5.85166-1.89979-.58938-2.01492-1.4701-2.98988-3.7624-3.04907-2.63327-.068-3.86173.92949-4.60612,3.37392-.92087,3.02395-3.66486,1.92443-5.51109,1.58146-2.56619-.47667-.69254-2.47829-.40459-3.54138,1.5634-5.77195,3.4771-11.44857,5.06622-17.21423C208.8484,42.001,210.12635,40.33585,213.28886,41.13342Z" fill="#cb5c2a"/><path d="M142.08019,22.47571c-.0062-.33247-.00631-.66493-.00619-.9974.00459-12.3669.00137-12.32261,12.66689-11.40394,2.16979.15736,3.42387.61612,3.36958,3.12275-.05062,2.33732-1.33394,2.75946-3.22416,2.6924a20.41988,20.41988,0,0,0-2.49166.026c-1.38492.12075-3.3282-.45527-3.34778,1.85544-.0195,2.302,1.90473,1.78126,3.30625,1.9206,1.97578.19644,4.60818-.78562,4.51585,2.85042-.08482,3.33992-2.5358,2.2918-4.322,2.51629-1.52653.19182-3.6628-.50758-3.52441,2.20332.11692,2.29,1.99,1.76434,3.3834,1.86153,1.32408.09238,2.65813.03105,3.9853.092,2.01365.09246,2.32842,1.45483,2.33086,3.11412.0023,1.57048-.52517,2.56-2.25939,2.55759-3.98848-.00553-7.97714-.02311-11.96537.01-2.08189.01731-2.427-1.27222-2.41665-2.9461C142.10035,28.79253,142.0864,25.63408,142.08019,22.47571Z" fill="#cb5d2b"/><path d="M269.27275,10.23594c3.37363-.66028,4.70508,1.0155,5.49137,3.80679,1.61865,5.7459,3.4802,11.423,5.13855,17.1583.34615,1.19706,1.90976,3.14033-.65468,3.49989-1.86991.26219-4.16849,1.2477-5.62572-1.52822-2.52822-4.81612-5.5672-4.775-8.24242.06117-1.34908,2.43884-3.46987,1.84793-5.218,1.4787-2.67644-.56528-1.16655-2.58434-.75433-3.98693,1.68323-5.72747,3.62936-11.3828,5.14255-17.15288C265.2992,10.7162,266.67416,9.5792,269.27275,10.23594Z" fill="#cb5c2a"/><path d="M232.83827,22.58911c-.0036-.3328-.00247-.6656-.00378-.9984-.05023-12.73461-.05386-12.695,12.92307-11.50917,1.9743.1804,3.08506.63078,3.0806,2.86775-.00423,2.13281-.84713,3.08082-2.96373,2.94149a8.159,8.159,0,0,0-1.99237.02091c-1.4609.26991-3.83974-.90339-4.01381,1.617-.20647,2.99005,2.41548,2.01981,4.02934,2.13945,1.874.13892,3.72152-.10543,3.712,2.71106-.00948,2.79721-1.83156,2.58388-3.71968,2.71479-1.60763.11148-4.1993-.90787-4.05724,2.11254.13654,2.90326,2.68992,1.6702,4.28645,1.91911,2.09406.32647,5.05342-.89078,4.89173,3.05942-.06029,1.47317-.33752,2.66382-2.14972,2.68451-.33264.0038-.66637.00551-.99749.03332C232.89249,35.99213,232.89252,35.99252,232.83827,22.58911Z" fill="#cb5c2a"/><path d="M255.91,53.61805q-.00183-2.48389-.00119-4.96777c-.00012-8.13567-.00015-8.13567,9.18123-7.6038,7.20238.41723,10.43588,3.56162,9.77564,9.55367-.53049,4.81476-3.768,6.98936-8.09771,7.15279-3.31533.1251-4.49015,1.26027-4.05985,4.41214.3838,2.81108-.88407,3.74106-3.68647,3.70342-2.88354-.03867-3.20322-1.54626-3.13174-3.806C255.97886,59.25029,255.91126,56.43309,255.91,53.61805Z" fill="#cc5d2a"/><path d="M70.29735,35.14313c-2-.03992-4.044-.03011-5.82462-1.05409-1.27111-.73094-3.91621-.84739-2.853-3.10848.78512-1.66967,2.04489-4.19654,4.96262-2.46394a9.51378,9.51378,0,0,0,1.86516.68784c1.46276.48868,3.2847,1.0134,3.92752-.73166.76231-2.06941-1.4814-2.09689-2.69736-2.72833-.2946-.153-.60227-.281-.90538-.4173-6.38239-2.86923-8.4737-6.489-6.29866-10.90309,2.16652-4.3968,9.16783-5.95124,14.04111-3.04971,1.03026.61342,2.77,1.08442,1.68345,2.91-.73932,1.2422-1.42835,2.78092-3.33344,2.43094-.80592-.148-1.55666-.68735-2.357-.75388-1.21753-.1012-2.92864-.79483-3.34815,1.0002-.33,1.41184,1.23986,1.72568,2.245,2.22233a23.88578,23.88578,0,0,0,2.27756,1.01119c3.95244,1.46226,6.716,3.828,5.99231,8.49484C79.05268,32.70033,75.3832,35.12823,70.29735,35.14313Z" fill="#cb5c29"/><path d="M33.47932,66.01837A11.49551,11.49551,0,0,1,27.932,64.75091c-1.29908-.63993-3.73721-.96137-2.24324-3.37277.97281-1.57021,1.91353-3.83917,4.57607-2.21373a4.14764,4.14764,0,0,0,1.34847.623c1.58484.28188,3.83836,1.18874,4.48788-.56963.82464-2.23245-1.85675-2.23739-3.19466-2.88887-2.83391-1.38-6.07774-2.32614-6.95366-5.85359-.9622-3.875.44468-6.84078,4.06224-8.67276,3.4813-1.76293,10.00223-1.01284,11.77062,1.32451.56646.7487.78382,1.48188.0978,2.20479-.96611,1.01805-1.523,2.74382-3.49652,2.15255a13.06316,13.06316,0,0,0-2.87032-.76249c-1.06762-.06164-2.59667-.42361-2.84824,1.159-.18134,1.14078,1.068,1.51458,1.94782,1.9291.75069.35367,1.53408.63766,2.30157.956,5.46625,2.26676,7.4308,5.03462,6.46574,9.10772C42.46153,63.76524,38.71459,66.15091,33.47932,66.01837Z" fill="#cb5b29"/><path d="M181.88257,53.61366c.02656-9.27171,8.30468-15.48776,16.05154-12.00469,1.43.64295,3.55922,1.233,2.52063,3.45238-.71451,1.52687-1.68148,3.3054-4.21124,2.16837-2.54465-1.1437-5.01369-.71595-6.43279,1.95624a8.42578,8.42578,0,0,0,.22279,9.008c1.63076,2.46853,3.96258,2.8363,6.51085,1.309,2.4323-1.45779,3.35895.60342,4.27115,2.00885,1.2841,1.97838-.77627,2.66636-1.90613,3.2523a11.61477,11.61477,0,0,1-11.44967-.17267C183.65231,62.48741,181.86789,58.74065,181.88257,53.61366Z" fill="#cb5c2a"/><path d="M175.06193,25.09161c-.00369-1.83112-.07448-3.66568.0141-5.4925.11247-2.319-.37563-3.98379-3.21633-3.69316-2.48675.25444-3.12524-1.07956-3.03776-3.324.09585-2.4591,1.69845-2.47311,3.44065-2.47011,4.32732.00746,8.65525.0496,12.98172-.01016,2.25693-.03118,3.36378.812,3.35817,3.20763-.00566,2.41286-1.44451,2.762-3.27318,2.57028-3.10565-.32561-3.559,1.42381-3.472,3.95565.12005,3.4916.04845,6.99069.0195,10.48624-.01869,2.25677.5966,4.63068-3.24593,4.68325-4.072.05568-3.57172-2.42854-3.566-4.91916Q175.07066,27.58859,175.06193,25.09161Z" fill="#cc5e2b"/><path d="M284.78442,25.15241c.00327-1.99163-.07354-3.987.02357-5.97389.11041-2.25857-.693-3.50648-3.11518-3.28225-2.33768.21636-3.28447-.79369-3.19772-3.17333.08641-2.37147,1.51714-2.61721,3.33374-2.60955,4.31433.01816,8.62912.03978,12.94306-.00465,1.97107-.0203,3.10539.57075,3.10463,2.81656-.0007,2.08279-.74,3.19236-2.891,2.95749-3.15519-.34451-3.47312,1.5319-3.41077,3.99334.0966,3.81477-.05961,7.6361.04559,11.45041.06595,2.39132-.51434,3.62926-3.291,3.65821-2.94666.03071-3.78814-1.1692-3.57839-3.85989C284.90523,29.14529,284.78119,27.144,284.78442,25.15241Z" fill="#cb5d2a"/><path d="M11.95986,10.117c1.98986,0,3.98012.02495,5.96946-.00732,1.84267-.02988,3.26455.26681,3.26677,2.636.00184,1.96061-.48106,3.35513-2.73237,3.11609-3.48775-.37031-3.62788,1.76141-3.56189,4.33381.0978,3.812-.10273,7.63374.05941,11.44129.11651,2.73615-1.14786,3.34591-3.5838,3.32354-2.28087-.021-3.36409-.71-3.27774-3.13612.11791-3.31277.04086-6.63305.02169-9.95-.01759-3.04161.9007-6.66646-4.37053-6.10677C1.9126,15.96274,1.93975,14.25147,1.904,12.902c-.03941-1.486.34322-2.69419,2.09751-2.72952,2.65179-.05342,5.30545-.01395,7.95831-.01395Z" fill="#cc5d2a"/><path d="M198.64862,23.228c.00414,2.64854-.11053,5.30344.03614,7.94382.14912,2.6848-.68559,3.876-3.62187,3.82748-2.76075-.04558-3.30865-1.271-3.27058-3.65617.09513-5.95761.08124-11.91856-.00247-17.87659-.0308-2.19323.52654-3.42577,3.02171-3.38436,2.28056.03786,3.916.425,3.85107,3.21432C198.58554,16.60536,198.64449,19.91736,198.64862,23.228Z" fill="#cd5f2c"/><path d="M57.03716,22.4016c-.00223,2.976-.08726,5.95525.02467,8.92707.08954,2.37727-.49967,3.60081-3.26455,3.65344-2.95993.05633-3.67207-1.1751-3.61776-3.82748.11844-5.78429.1079-11.574.00352-17.35885-.05051-2.79944,1.11663-3.7558,3.8605-3.73913,2.96753.01805,3.05874,1.754,3.011,3.91321C56.99251,16.77918,57.0394,19.59091,57.03716,22.4016Z" fill="#cc602c"/><path d="M159.84137,52.16233c-.43787.04721-1.20562-.86694-1.21941-2.70436-.01311-1.7463.53056-2.848,2.49471-2.76945,1.6725.06691,2.86833.65822,2.90569,2.55115C164.05865,51.07672,162.98531,51.85962,159.84137,52.16233Z" fill="#fbdf83"/><path d="M105.97611,22.33669c-.31107,3.11389-.401,6.934-4.5278,7.03256-3.70774.08853-4.63869-3.20658-4.60592-6.46106.03262-3.2384.15939-6.84789,4.46381-6.9892C105.35262,15.78613,105.68859,19.18357,105.97611,22.33669Z" fill="#f9dd82"/><path d="M213.46306,47.53412c.51063,2.11982.981,3.842,1.32733,5.58878.24316,1.22638.07527,2.37591-1.5536,2.408-1.49313.02943-2.03358-.76343-1.68283-2.21174C212.00185,51.46971,212.01354,49.47184,213.46306,47.53412Z" fill="#f4ca75"/><path d="M269.00019,18.0117c1.70866.25565,1.47226,1.75455,1.65088,2.795.19892,1.159,1.26839,2.55246-.22768,3.53831a2.05187,2.05187,0,0,1-1.84625.00974c-1.449-.9645-.56778-2.30753-.30513-3.51344C268.47823,19.89446,268.75278,18.96254,269.00019,18.0117Z" fill="#fde187"/><path d="M265.43379,46.72451c1.35209.0813,3.05179.46041,3.04517,2.66017-.00668,2.22343-1.52086,3.18238-3.57948,3.34545-1.84255.14592-2.21937-1.05411-2.18757-2.54755C262.74677,48.54632,262.40447,46.64549,265.43379,46.72451Z" fill="#fad87f"/></g></g></svg>