<?xml version="1.0" encoding="UTF-8"?>
<!DOCTYPE svg PUBLIC "-//W3C//DTD SVG 1.1//EN" "http://www.w3.org/Graphics/SVG/1.1/DTD/svg11.dtd">
<svg xmlns="http://www.w3.org/2000/svg" version="1.1" width="300px" height="300px" style="shape-rendering:geometricPrecision; text-rendering:geometricPrecision; image-rendering:optimizeQuality; fill-rule:evenodd; clip-rule:evenodd" xmlns:xlink="http://www.w3.org/1999/xlink">
<g><path style="opacity:1" fill="#cfeaed" d="M -0.5,-0.5 C 99.5,-0.5 199.5,-0.5 299.5,-0.5C 299.5,70.8333 299.5,142.167 299.5,213.5C 286.829,213.333 274.162,213.5 261.5,214C 259.694,214.81 258.194,215.976 257,217.5C 255.414,215.956 253.58,214.789 251.5,214C 204.814,213.39 158.147,213.556 111.5,214.5C 102.119,210.817 93.6192,212.15 86,218.5C 78.4909,212.823 70.3243,211.489 61.5,214.5C 40.8603,213.523 20.1937,213.189 -0.5,213.5C -0.5,142.167 -0.5,70.8333 -0.5,-0.5 Z"/></g>
<g><path style="opacity:1" fill="#faf0e4" d="M 164.5,22.5 C 164.062,22.4346 163.728,22.6012 163.5,23C 167.162,26.9775 169.496,31.6442 170.5,37C 169.184,41.1299 168.017,45.2966 167,49.5C 165.89,51.0368 164.39,51.7035 162.5,51.5C 162.649,52.552 162.483,53.552 162,54.5C 158.324,56.0271 155.49,58.3604 153.5,61.5C 151.067,61.2729 149.401,62.2729 148.5,64.5C 146.537,65.9599 144.704,67.6266 143,69.5C 142.667,68.8333 142.333,68.1667 142,67.5C 140.956,68.6226 140.29,69.9559 140,71.5C 137.928,68.0848 136.761,68.0848 136.5,71.5C 135.325,71.281 134.325,71.6143 133.5,72.5C 131.796,77.5371 128.463,80.8704 123.5,82.5C 120.934,81.6084 118.934,79.9418 117.5,77.5C 115.617,73 115.117,68.3334 116,63.5C 119.932,57.9617 124.099,52.6284 128.5,47.5C 129.833,45.1667 129.833,42.8333 128.5,40.5C 122.712,39.0695 117.712,36.2362 113.5,32C 111.866,31.5065 110.199,31.3398 108.5,31.5C 108.62,30.4138 109.287,29.7472 110.5,29.5C 118.655,26.4734 126.988,23.9734 135.5,22C 145.342,21.1754 155.009,21.342 164.5,22.5 Z"/></g>
<g><path style="opacity:1" fill="#fadec7" d="M 164.5,22.5 C 185.242,25.7714 203.575,34.2714 219.5,48C 220.823,48.8159 221.489,49.9826 221.5,51.5C 218.425,52.9085 216.425,55.2419 215.5,58.5C 209.015,59.0895 202.682,60.2562 196.5,62C 194.845,63.4443 194.178,65.2776 194.5,67.5C 208.833,67.5 223.167,67.5 237.5,67.5C 242.019,75.049 246.352,82.7156 250.5,90.5C 252.076,92.9793 253.076,95.646 253.5,98.5C 251.407,97.9553 249.407,97.122 247.5,96C 242.5,92.3333 237.5,88.6667 232.5,85C 230.316,84.1325 228.149,83.2992 226,82.5C 225.167,82.6667 224.333,82.8333 223.5,83C 218.916,87.0987 214.249,90.932 209.5,94.5C 202.46,92.8808 195.46,91.0475 188.5,89C 184.467,84.6321 180.134,80.6321 175.5,77C 166.282,74.8995 158.948,70.0662 153.5,62.5C 153.5,62.1667 153.5,61.8333 153.5,61.5C 155.49,58.3604 158.324,56.0271 162,54.5C 162.483,53.552 162.649,52.552 162.5,51.5C 164.39,51.7035 165.89,51.0368 167,49.5C 168.017,45.2966 169.184,41.1299 170.5,37C 169.496,31.6442 167.162,26.9775 163.5,23C 163.728,22.6012 164.062,22.4346 164.5,22.5 Z"/></g>
<g><path style="opacity:1" fill="#f9dec6" d="M 108.5,31.5 C 110.199,31.3398 111.866,31.5065 113.5,32C 117.712,36.2362 122.712,39.0695 128.5,40.5C 129.833,42.8333 129.833,45.1667 128.5,47.5C 124.099,52.6284 119.932,57.9617 116,63.5C 115.117,68.3334 115.617,73 117.5,77.5C 118.934,79.9418 120.934,81.6084 123.5,82.5C 123.5,82.8333 123.5,83.1667 123.5,83.5C 121.004,86.1615 118.338,88.6615 115.5,91C 109.565,93.6974 103.565,95.8641 97.5,97.5C 94.3551,96.9233 92.8551,94.9233 93,91.5C 92.6667,91.8333 92.3333,92.1667 92,92.5C 90.5823,89.999 89.5823,90.3323 89,93.5C 88.6667,92.5 88.3333,91.5 88,90.5C 87.3333,89.1667 86.6667,89.1667 86,90.5C 85.8603,87.9568 85.1937,85.6234 84,83.5C 83.6667,85.1667 83.3333,86.8333 83,88.5C 82.4309,84.6395 81.5976,84.6395 80.5,88.5C 76.7261,86.2294 73.3928,83.3961 70.5,80C 68.4234,78.295 66.09,77.1283 63.5,76.5C 63.0825,75.7784 62.4158,75.2784 61.5,75C 65.8018,70.2091 69.4684,65.0424 72.5,59.5C 76.8461,59.6657 81.1794,59.499 85.5,59C 83.1631,57.3662 81.1631,55.5329 79.5,53.5C 88.0258,44.638 97.6925,37.3047 108.5,31.5 Z"/></g>
<g><path style="opacity:1" fill="#ec755c" d="M 108.5,41.5 C 116.162,41.0268 118.496,44.1935 115.5,51C 110.052,53.9559 106.719,52.4559 105.5,46.5C 105.757,44.3076 106.757,42.6409 108.5,41.5 Z"/></g>
<g><path style="opacity:1" fill="#98958e" d="M 176.5,40.5 C 179.541,41.3754 181.375,43.3754 182,46.5C 182.837,44.9926 184.004,44.4926 185.5,45C 184.333,46.1667 183.167,47.3333 182,48.5C 179.92,45.9348 178.087,43.2682 176.5,40.5 Z"/></g>
<g><path style="opacity:1" fill="#fcfdfc" d="M 221.5,51.5 C 224.85,51.335 228.183,51.5017 231.5,52C 235.241,54.7323 239.241,57.0657 243.5,59C 245.037,60.1096 245.703,61.6096 245.5,63.5C 248.908,62.828 251.575,63.828 253.5,66.5C 248.208,67.4948 242.875,67.8282 237.5,67.5C 223.167,67.5 208.833,67.5 194.5,67.5C 194.178,65.2776 194.845,63.4443 196.5,62C 202.682,60.2562 209.015,59.0895 215.5,58.5C 216.425,55.2419 218.425,52.9085 221.5,51.5 Z"/></g>
<g><path style="opacity:1" fill="#fbfcfb" d="M 79.5,53.5 C 81.1631,55.5329 83.1631,57.3662 85.5,59C 81.1794,59.499 76.8461,59.6657 72.5,59.5C 69.4281,59.8174 66.4281,59.4841 63.5,58.5C 68.456,55.6258 73.7893,53.9591 79.5,53.5 Z"/></g>
<g><path style="opacity:1" fill="#cae4db" d="M 148.5,64.5 C 147.9,68.5351 148.9,72.0351 151.5,75C 150.056,77.4485 148.222,79.6152 146,81.5C 145.333,82.8333 145.333,84.1667 146,85.5C 148.443,86.5933 150.943,87.5933 153.5,88.5C 155.428,89.7699 156.761,91.4365 157.5,93.5C 157.182,94.6473 156.516,95.4806 155.5,96C 151.527,97.0278 147.527,97.8611 143.5,98.5C 144.041,95.3484 143.041,92.8484 140.5,91C 134.917,88.3513 129.25,85.8513 123.5,83.5C 123.5,83.1667 123.5,82.8333 123.5,82.5C 128.463,80.8704 131.796,77.5371 133.5,72.5C 134.325,71.6143 135.325,71.281 136.5,71.5C 136.761,68.0848 137.928,68.0848 140,71.5C 140.29,69.9559 140.956,68.6226 142,67.5C 142.333,68.1667 142.667,68.8333 143,69.5C 144.704,67.6266 146.537,65.9599 148.5,64.5 Z"/></g>
<g><path style="opacity:1" fill="#559786" d="M 62.5,76.5 C 62.5774,77.7498 63.244,78.5831 64.5,79C 63.4829,80.0495 63.3162,81.2161 64,82.5C 65.8333,84.3333 67.6667,86.1667 69.5,88C 71.8884,88.3034 74.0551,89.1367 76,90.5C 76.7676,94.8054 78.2676,98.8054 80.5,102.5C 84.8333,103.167 89.1667,103.833 93.5,104.5C 93.8333,105.333 94.1667,106.167 94.5,107C 93.8333,109 93.1667,111 92.5,113C 92.7852,114.89 93.7852,116.223 95.5,117C 107.385,118.956 119.385,120.29 131.5,121C 136.032,122.622 140.699,123.622 145.5,124C 150.929,126.864 156.595,129.031 162.5,130.5C 162.5,131.833 162.5,133.167 162.5,134.5C 148.046,135.772 133.713,136.772 119.5,137.5C 117.608,134.724 115.941,131.724 114.5,128.5C 114.043,127.702 113.376,127.369 112.5,127.5C 104.883,129.017 97.2159,130.351 89.5,131.5C 89.1373,132.183 88.8039,132.85 88.5,133.5C 82.0638,132.317 75.7305,131.317 69.5,130.5C 70.2389,130.631 70.9056,130.464 71.5,130C 70.5796,127.159 69.5796,124.326 68.5,121.5C 67.8333,122.5 67.1667,123.5 66.5,124.5C 65.2342,120.535 64.0675,116.535 63,112.5C 61.847,115.356 61.0137,118.356 60.5,121.5C 60.1667,121.833 59.8333,122.167 59.5,122.5C 58.7492,121.624 58.2492,120.624 58,119.5C 57.5291,121.246 56.8624,122.913 56,124.5C 54.8443,120.877 53.8443,117.211 53,113.5C 51.3396,119.142 49.8396,124.809 48.5,130.5C 50.5,130.5 52.5,130.5 54.5,130.5C 51.8333,131.167 49.1667,131.833 46.5,132.5C 44.5889,126.223 43.9223,119.89 44.5,113.5C 47.9186,102.42 52.4186,91.7538 58,81.5C 59.0669,79.3083 60.5669,77.6417 62.5,76.5 Z"/></g>
<g><path style="opacity:1" fill="#96cbbd" d="M 253.5,98.5 C 255.734,102.522 257.401,106.856 258.5,111.5C 257.778,111.918 257.278,112.584 257,113.5C 252.929,111.414 248.762,109.414 244.5,107.5C 243.185,105.231 242.018,102.898 241,100.5C 239.991,102.025 239.491,103.692 239.5,105.5C 238.5,105.5 237.5,105.5 236.5,105.5C 236.28,100.744 235.28,100.078 233.5,103.5C 232.604,100.856 231.771,98.1897 231,95.5C 230.51,96.7932 230.343,98.1266 230.5,99.5C 228.549,99.7733 227.049,99.1066 226,97.5C 225.167,99.5 224.333,101.5 223.5,103.5C 222.416,102.335 221.583,101.002 221,99.5C 220.692,100.308 220.192,100.975 219.5,101.5C 216.125,99.109 212.792,96.7756 209.5,94.5C 214.249,90.932 218.916,87.0987 223.5,83C 224.333,82.8333 225.167,82.6667 226,82.5C 228.149,83.2992 230.316,84.1325 232.5,85C 237.5,88.6667 242.5,92.3333 247.5,96C 249.407,97.122 251.407,97.9553 253.5,98.5 Z"/></g>
<g><path style="opacity:1" fill="#98cbbe" d="M 123.5,83.5 C 129.25,85.8513 134.917,88.3513 140.5,91C 143.041,92.8484 144.041,95.3484 143.5,98.5C 143.5,98.8333 143.5,99.1667 143.5,99.5C 141.692,99.4914 140.025,99.9914 138.5,101C 136.044,103.946 133.377,106.613 130.5,109C 125.5,109.667 120.5,109.667 115.5,109C 109.641,104.906 103.641,101.073 97.5,97.5C 103.565,95.8641 109.565,93.6974 115.5,91C 118.338,88.6615 121.004,86.1615 123.5,83.5 Z"/></g>
<g><path style="opacity:1" fill="#64a898" d="M 153.5,62.5 C 158.948,70.0662 166.282,74.8995 175.5,77C 180.134,80.6321 184.467,84.6321 188.5,89C 195.46,91.0475 202.46,92.8808 209.5,94.5C 212.792,96.7756 216.125,99.109 219.5,101.5C 220.192,100.975 220.692,100.308 221,99.5C 221.583,101.002 222.416,102.335 223.5,103.5C 224.333,101.5 225.167,99.5 226,97.5C 227.049,99.1066 228.549,99.7733 230.5,99.5C 230.343,98.1266 230.51,96.7932 231,95.5C 231.771,98.1897 232.604,100.856 233.5,103.5C 235.28,100.078 236.28,100.744 236.5,105.5C 237.5,105.5 238.5,105.5 239.5,105.5C 239.491,103.692 239.991,102.025 241,100.5C 242.018,102.898 243.185,105.231 244.5,107.5C 248.762,109.414 252.929,111.414 257,113.5C 257.278,112.584 257.778,111.918 258.5,111.5C 258.833,112.167 259.167,112.833 259.5,113.5C 257.844,119.415 256.177,125.415 254.5,131.5C 253.503,131.53 252.836,131.03 252.5,130C 251.464,127.226 250.631,124.393 250,121.5C 248.971,125.266 247.804,128.933 246.5,132.5C 236.452,130.011 226.119,128.677 215.5,128.5C 216.91,122.617 216.243,116.95 213.5,111.5C 211.25,117.054 210.583,122.721 211.5,128.5C 198.276,129.15 185.109,130.483 172,132.5C 170.615,132.486 169.449,132.152 168.5,131.5C 170.749,127.402 173.249,123.402 176,119.5C 176.755,116.503 175.922,114.003 173.5,112C 169.268,110.05 164.934,108.383 160.5,107C 157.487,102.751 158.153,99.0841 162.5,96C 167.081,94.1288 171.248,91.6288 175,88.5C 175.667,87.1667 175.667,85.8333 175,84.5C 168.453,80.2356 161.286,77.5689 153.5,76.5C 154.656,71.5383 154.656,66.8716 153.5,62.5 Z"/></g>
<g><path style="opacity:1" fill="#6cb1a0" d="M 62.5,76.5 C 62.8333,76.5 63.1667,76.5 63.5,76.5C 66.09,77.1283 68.4234,78.295 70.5,80C 73.3928,83.3961 76.7261,86.2294 80.5,88.5C 81.5976,84.6395 82.4309,84.6395 83,88.5C 83.3333,86.8333 83.6667,85.1667 84,83.5C 85.1937,85.6234 85.8603,87.9568 86,90.5C 86.6667,89.1667 87.3333,89.1667 88,90.5C 88.3333,91.5 88.6667,92.5 89,93.5C 89.5823,90.3323 90.5823,89.999 92,92.5C 92.3333,92.1667 92.6667,91.8333 93,91.5C 92.8551,94.9233 94.3551,96.9233 97.5,97.5C 103.641,101.073 109.641,104.906 115.5,109C 120.5,109.667 125.5,109.667 130.5,109C 133.377,106.613 136.044,103.946 138.5,101C 140.025,99.9914 141.692,99.4914 143.5,99.5C 142.657,102.516 141.157,105.183 139,107.5C 138.676,111.546 140.509,114.379 144.5,116C 151.183,118.002 157.85,120.002 164.5,122C 165.58,124.299 165.246,126.466 163.5,128.5C 162.662,128.842 162.328,129.508 162.5,130.5C 156.595,129.031 150.929,126.864 145.5,124C 140.699,123.622 136.032,122.622 131.5,121C 119.385,120.29 107.385,118.956 95.5,117C 93.7852,116.223 92.7852,114.89 92.5,113C 93.1667,111 93.8333,109 94.5,107C 94.1667,106.167 93.8333,105.333 93.5,104.5C 89.1667,103.833 84.8333,103.167 80.5,102.5C 78.2676,98.8054 76.7676,94.8054 76,90.5C 74.0551,89.1367 71.8884,88.3034 69.5,88C 67.6667,86.1667 65.8333,84.3333 64,82.5C 63.3162,81.2161 63.4829,80.0495 64.5,79C 63.244,78.5831 62.5774,77.7498 62.5,76.5 Z"/></g>
<g><path style="opacity:1" fill="#b2d7cd" d="M 153.5,61.5 C 153.5,61.8333 153.5,62.1667 153.5,62.5C 154.656,66.8716 154.656,71.5383 153.5,76.5C 161.286,77.5689 168.453,80.2356 175,84.5C 175.667,85.8333 175.667,87.1667 175,88.5C 171.248,91.6288 167.081,94.1288 162.5,96C 158.153,99.0841 157.487,102.751 160.5,107C 164.934,108.383 169.268,110.05 173.5,112C 175.922,114.003 176.755,116.503 176,119.5C 173.249,123.402 170.749,127.402 168.5,131.5C 167.506,135.699 167.339,140.033 168,144.5C 164.093,139.874 162.593,134.541 163.5,128.5C 165.246,126.466 165.58,124.299 164.5,122C 157.85,120.002 151.183,118.002 144.5,116C 140.509,114.379 138.676,111.546 139,107.5C 141.157,105.183 142.657,102.516 143.5,99.5C 143.5,99.1667 143.5,98.8333 143.5,98.5C 147.527,97.8611 151.527,97.0278 155.5,96C 156.516,95.4806 157.182,94.6473 157.5,93.5C 156.761,91.4365 155.428,89.7699 153.5,88.5C 150.943,87.5933 148.443,86.5933 146,85.5C 145.333,84.1667 145.333,82.8333 146,81.5C 148.222,79.6152 150.056,77.4485 151.5,75C 148.9,72.0351 147.9,68.5351 148.5,64.5C 149.401,62.2729 151.067,61.2729 153.5,61.5 Z"/></g>
<g><path style="opacity:1" fill="#3b8272" d="M 215.5,128.5 C 214.167,128.5 212.833,128.5 211.5,128.5C 210.583,122.721 211.25,117.054 213.5,111.5C 216.243,116.95 216.91,122.617 215.5,128.5 Z"/></g>
<g><path style="opacity:1" fill="#2c6358" d="M 44.5,113.5 C 43.9223,119.89 44.5889,126.223 46.5,132.5C 46.5,132.833 46.5,133.167 46.5,133.5C 47.1408,134.482 47.8075,135.482 48.5,136.5C 46.9604,137.532 46.4604,138.865 47,140.5C 49.0007,143.331 51.1673,145.997 53.5,148.5C 51.722,150.829 50.722,153.496 50.5,156.5C 47.6266,150.848 42.96,149.015 36.5,151C 34.3762,152.122 32.5429,153.622 31,155.5C 28.3784,158.411 26.5451,161.744 25.5,165.5C 24.1667,165.5 22.8333,165.5 21.5,165.5C 19.0225,165.949 17.0225,165.283 15.5,163.5C 21.2339,160.603 25.9006,156.437 29.5,151C 27.9984,150.417 26.6651,149.584 25.5,148.5C 27.8167,145.683 30.3167,143.016 33,140.5C 33,138.5 33,136.5 33,134.5C 37.8759,128.082 41.7092,121.082 44.5,113.5 Z"/></g>
<g><path style="opacity:1" fill="#387e6e" d="M 69.5,130.5 C 64.5,130.5 59.5,130.5 54.5,130.5C 52.5,130.5 50.5,130.5 48.5,130.5C 49.8396,124.809 51.3396,119.142 53,113.5C 53.8443,117.211 54.8443,120.877 56,124.5C 56.8624,122.913 57.5291,121.246 58,119.5C 58.2492,120.624 58.7492,121.624 59.5,122.5C 59.8333,122.167 60.1667,121.833 60.5,121.5C 61.0137,118.356 61.847,115.356 63,112.5C 64.0675,116.535 65.2342,120.535 66.5,124.5C 67.1667,123.5 67.8333,122.5 68.5,121.5C 69.5796,124.326 70.5796,127.159 71.5,130C 70.9056,130.464 70.2389,130.631 69.5,130.5 Z"/></g>
<g><path style="opacity:1" fill="#2a6257" d="M 259.5,113.5 C 261.327,121.488 264.993,128.488 270.5,134.5C 269.91,135.799 268.91,136.632 267.5,137C 270.08,141.584 273.413,145.584 277.5,149C 275.299,150.043 272.966,150.877 270.5,151.5C 273.625,157.292 278.292,161.292 284.5,163.5C 284.291,164.086 283.957,164.586 283.5,165C 279.514,165.499 275.514,165.666 271.5,165.5C 270.833,165.5 270.167,165.5 269.5,165.5C 265.032,157.073 259.032,149.907 251.5,144C 254.102,140.066 255.102,135.899 254.5,131.5C 256.177,125.415 257.844,119.415 259.5,113.5 Z"/></g>
<g><path style="opacity:1" fill="#97cabd" d="M 163.5,128.5 C 162.593,134.541 164.093,139.874 168,144.5C 167.339,140.033 167.506,135.699 168.5,131.5C 169.449,132.152 170.615,132.486 172,132.5C 185.109,130.483 198.276,129.15 211.5,128.5C 212.833,128.5 214.167,128.5 215.5,128.5C 226.119,128.677 236.452,130.011 246.5,132.5C 244.766,135.237 244.432,138.071 245.5,141C 243.598,143.719 241.598,146.219 239.5,148.5C 238.5,148.5 237.5,148.5 236.5,148.5C 233.142,138.913 231.808,139.247 232.5,149.5C 231.833,149.167 231.167,148.833 230.5,148.5C 225.858,137.658 224.191,137.991 225.5,149.5C 222.555,151.161 219.221,152.328 215.5,153C 207.778,153.449 200.112,154.282 192.5,155.5C 191.903,155.265 191.57,154.765 191.5,154C 193.313,149.256 194.48,144.423 195,139.5C 192.281,140.444 189.448,140.777 186.5,140.5C 185.908,143.127 185.575,145.794 185.5,148.5C 183.396,148.201 181.396,148.534 179.5,149.5C 181.086,151.173 181.753,153.173 181.5,155.5C 179.958,156.301 178.292,156.634 176.5,156.5C 175.516,151.96 174.016,147.627 172,143.5C 169.782,146.959 167.949,150.626 166.5,154.5C 165.596,155.209 165.263,156.209 165.5,157.5C 163.801,157.473 162.467,156.806 161.5,155.5C 161.366,153.708 161.699,152.042 162.5,150.5C 161.432,149.566 160.099,149.232 158.5,149.5C 157.798,146.422 156.798,143.422 155.5,140.5C 153.167,141.833 150.833,141.833 148.5,140.5C 148.167,140.667 147.833,140.833 147.5,141C 148.811,144.354 149.644,147.854 150,151.5C 150.383,152.056 150.883,152.389 151.5,152.5C 151.737,153.791 151.404,154.791 150.5,155.5C 143.04,154.808 135.706,153.474 128.5,151.5C 124.719,147.376 121.719,142.709 119.5,137.5C 133.713,136.772 148.046,135.772 162.5,134.5C 162.5,133.167 162.5,131.833 162.5,130.5C 162.328,129.508 162.662,128.842 163.5,128.5 Z"/></g>
<g><path style="opacity:1" fill="#95c9bb" d="M 54.5,130.5 C 59.5,130.5 64.5,130.5 69.5,130.5C 75.7305,131.317 82.0638,132.317 88.5,133.5C 87.2003,136.432 85.2003,138.766 82.5,140.5C 81.2502,140.423 80.4169,139.756 80,138.5C 79.6667,138.833 79.3333,139.167 79,139.5C 68.3556,136.632 57.5223,134.632 46.5,133.5C 46.5,133.167 46.5,132.833 46.5,132.5C 49.1667,131.833 51.8333,131.167 54.5,130.5 Z"/></g>
<g><path style="opacity:1" fill="#519b85" d="M 46.5,133.5 C 57.5223,134.632 68.3556,136.632 79,139.5C 79.3333,139.167 79.6667,138.833 80,138.5C 80.4169,139.756 81.2502,140.423 82.5,140.5C 79.7044,143.797 76.7044,146.964 73.5,150C 81.8727,153.427 90.5393,155.593 99.5,156.5C 103.6,156.763 107.6,156.43 111.5,155.5C 113.833,155.5 116.167,155.5 118.5,155.5C 122.228,155.205 125.895,154.539 129.5,153.5C 129.137,152.817 128.804,152.15 128.5,151.5C 135.706,153.474 143.04,154.808 150.5,155.5C 150.369,156.239 150.536,156.906 151,157.5C 151.667,156.167 152.333,156.167 153,157.5C 153.495,155.527 153.662,153.527 153.5,151.5C 155.167,151.5 156.833,151.5 158.5,151.5C 159.728,153.01 159.728,154.51 158.5,156C 159.749,156.74 160.749,156.573 161.5,155.5C 162.467,156.806 163.801,157.473 165.5,157.5C 165.263,156.209 165.596,155.209 166.5,154.5C 166.433,155.959 166.766,157.292 167.5,158.5C 164.07,159.211 163.737,160.877 166.5,163.5C 167.833,162.833 169.167,162.167 170.5,161.5C 171.833,162.5 173.167,163.5 174.5,164.5C 175.167,163.833 175.833,163.167 176.5,162.5C 177.609,163.59 178.609,163.59 179.5,162.5C 178.975,161.808 178.308,161.308 177.5,161C 178.308,160.692 178.975,160.192 179.5,159.5C 178.311,158.571 176.978,158.238 175.5,158.5C 175.833,157.833 176.167,157.167 176.5,156.5C 178.292,156.634 179.958,156.301 181.5,155.5C 182.209,156.404 183.209,156.737 184.5,156.5C 186.167,156.5 187.833,156.5 189.5,156.5C 190.216,156.783 191.049,157.116 192,157.5C 192.464,156.906 192.631,156.239 192.5,155.5C 200.112,154.282 207.778,153.449 215.5,153C 219.221,152.328 222.555,151.161 225.5,149.5C 226.151,150.091 226.818,150.757 227.5,151.5C 228.141,150.007 229.141,149.007 230.5,148.5C 231.167,148.833 231.833,149.167 232.5,149.5C 233.598,150.601 233.765,151.934 233,153.5C 232.163,151.993 230.996,151.493 229.5,152C 231.159,154.844 233.159,157.344 235.5,159.5C 236.8,160.601 237.3,161.934 237,163.5C 233.423,160.627 229.589,158.127 225.5,156C 216.761,152.891 212.761,156.058 213.5,165.5C 231.5,165.5 249.5,165.5 267.5,165.5C 268.167,165.5 268.833,165.5 269.5,165.5C 270.167,165.5 270.833,165.5 271.5,165.5C 271.5,165.833 271.5,166.167 271.5,166.5C 189.331,165.799 107.331,165.466 25.5,165.5C 40.5037,165.667 55.5037,165.5 70.5,165C 65.5412,160.166 59.5412,158.166 52.5,159C 51.244,158.583 50.5774,157.75 50.5,156.5C 54.8856,158.285 58.8856,157.785 62.5,155C 60.4328,154.464 58.5994,154.964 57,156.5C 57.2035,154.063 58.0368,151.729 59.5,149.5C 59.3333,149.167 59.1667,148.833 59,148.5C 58,149.5 57,150.5 56,151.5C 55.8446,149.144 55.8446,146.811 56,144.5C 55.3918,146.066 54.5585,147.4 53.5,148.5C 51.1673,145.997 49.0007,143.331 47,140.5C 46.4604,138.865 46.9604,137.532 48.5,136.5C 47.8075,135.482 47.1408,134.482 46.5,133.5 Z"/></g>
<g><path style="opacity:1" fill="#f6a325" d="M 112.5,127.5 C 111.948,129.331 111.948,130.997 112.5,132.5C 108.537,140.742 104.204,148.742 99.5,156.5C 90.5393,155.593 81.8727,153.427 73.5,150C 76.7044,146.964 79.7044,143.797 82.5,140.5C 85.2003,138.766 87.2003,136.432 88.5,133.5C 88.8039,132.85 89.1373,132.183 89.5,131.5C 97.2159,130.351 104.883,129.017 112.5,127.5 Z"/></g>
<g><path style="opacity:1" fill="#428474" d="M 254.5,131.5 C 255.102,135.899 254.102,140.066 251.5,144C 259.032,149.907 265.032,157.073 269.5,165.5C 268.833,165.5 268.167,165.5 267.5,165.5C 263.121,156.122 256.121,149.455 246.5,145.5C 243.559,146.606 241.392,148.606 240,151.5C 239.517,150.552 239.351,149.552 239.5,148.5C 241.598,146.219 243.598,143.719 245.5,141C 244.432,138.071 244.766,135.237 246.5,132.5C 247.804,128.933 248.971,125.266 250,121.5C 250.631,124.393 251.464,127.226 252.5,130C 252.836,131.03 253.503,131.53 254.5,131.5 Z"/></g>
<g><path style="opacity:1" fill="#ba5e47" d="M 162.5,150.5 C 161.041,150.433 159.708,150.766 158.5,151.5C 157.551,150.848 156.385,150.514 155,150.5C 153.319,150.608 152.152,151.275 151.5,152.5C 150.883,152.389 150.383,152.056 150,151.5C 149.644,147.854 148.811,144.354 147.5,141C 147.833,140.833 148.167,140.667 148.5,140.5C 150.833,141.833 153.167,141.833 155.5,140.5C 156.798,143.422 157.798,146.422 158.5,149.5C 160.099,149.232 161.432,149.566 162.5,150.5 Z"/></g>
<g><path style="opacity:1" fill="#356b60" d="M 238.5,137.5 C 239.725,138.152 240.392,139.319 240.5,141C 240.455,143.22 239.455,144.72 237.5,145.5C 236.267,142.658 236.6,139.992 238.5,137.5 Z"/></g>
<g><path style="opacity:1" fill="#9fbca9" d="M 150.5,145.5 C 152.5,145.5 154.5,145.5 156.5,145.5C 156.5,146.833 156.5,148.167 156.5,149.5C 154.5,149.5 152.5,149.5 150.5,149.5C 150.5,148.167 150.5,146.833 150.5,145.5 Z"/></g>
<g><path style="opacity:1" fill="#2c6358" d="M 230.5,148.5 C 229.141,149.007 228.141,150.007 227.5,151.5C 226.818,150.757 226.151,150.091 225.5,149.5C 224.191,137.991 225.858,137.658 230.5,148.5 Z"/></g>
<g><path style="opacity:1" fill="#e3a132" d="M 236.5,148.5 C 235.217,152.19 234.884,155.857 235.5,159.5C 233.159,157.344 231.159,154.844 229.5,152C 230.996,151.493 232.163,151.993 233,153.5C 233.765,151.934 233.598,150.601 232.5,149.5C 231.808,139.247 233.142,138.913 236.5,148.5 Z"/></g>
<g><path style="opacity:1" fill="#e98925" d="M 112.5,127.5 C 113.376,127.369 114.043,127.702 114.5,128.5C 115.941,131.724 117.608,134.724 119.5,137.5C 121.719,142.709 124.719,147.376 128.5,151.5C 128.804,152.15 129.137,152.817 129.5,153.5C 125.895,154.539 122.228,155.205 118.5,155.5C 118.5,155.167 118.5,154.833 118.5,154.5C 120.59,154.55 121.923,153.55 122.5,151.5C 118.766,147.357 116.1,142.69 114.5,137.5C 113.688,142.188 112.688,148.188 111.5,155.5C 107.6,156.43 103.6,156.763 99.5,156.5C 104.204,148.742 108.537,140.742 112.5,132.5C 111.948,130.997 111.948,129.331 112.5,127.5 Z"/></g>
<g><path style="opacity:1" fill="#5f2511" d="M 114.5,137.5 C 114.875,143.433 116.208,149.1 118.5,154.5C 118.5,154.833 118.5,155.167 118.5,155.5C 116.167,155.5 113.833,155.5 111.5,155.5C 112.688,148.188 113.688,142.188 114.5,137.5 Z"/></g>
<g><path style="opacity:1" fill="#e25c23" d="M 114.5,137.5 C 116.1,142.69 118.766,147.357 122.5,151.5C 121.923,153.55 120.59,154.55 118.5,154.5C 116.208,149.1 114.875,143.433 114.5,137.5 Z"/></g>
<g><path style="opacity:1" fill="#ad644e" d="M 192.5,155.5 C 192.631,156.239 192.464,156.906 192,157.5C 191.049,157.116 190.216,156.783 189.5,156.5C 190.692,153.548 189.692,151.548 186.5,150.5C 183.538,151.753 182.872,153.753 184.5,156.5C 183.209,156.737 182.209,156.404 181.5,155.5C 181.753,153.173 181.086,151.173 179.5,149.5C 181.396,148.534 183.396,148.201 185.5,148.5C 185.575,145.794 185.908,143.127 186.5,140.5C 189.448,140.777 192.281,140.444 195,139.5C 194.48,144.423 193.313,149.256 191.5,154C 191.57,154.765 191.903,155.265 192.5,155.5 Z"/></g>
<g><path style="opacity:1" fill="#98c8b9" d="M 186.5,145.5 C 188.5,145.5 190.5,145.5 192.5,145.5C 192.5,146.5 192.5,147.5 192.5,148.5C 190.5,148.5 188.5,148.5 186.5,148.5C 186.5,147.5 186.5,146.5 186.5,145.5 Z"/></g>
<g><path style="opacity:1" fill="#445c46" d="M 50.5,156.5 C 50.5774,157.75 51.244,158.583 52.5,159C 59.5412,158.166 65.5412,160.166 70.5,165C 55.5037,165.5 40.5037,165.667 25.5,165.5C 26.5451,161.744 28.3784,158.411 31,155.5C 32.5429,153.622 34.3762,152.122 36.5,151C 42.96,149.015 47.6266,150.848 50.5,156.5 Z"/></g>
<g><path style="opacity:1" fill="#445d47" d="M 267.5,165.5 C 249.5,165.5 231.5,165.5 213.5,165.5C 212.761,156.058 216.761,152.891 225.5,156C 229.589,158.127 233.423,160.627 237,163.5C 237.3,161.934 236.8,160.601 235.5,159.5C 234.884,155.857 235.217,152.19 236.5,148.5C 237.5,148.5 238.5,148.5 239.5,148.5C 239.351,149.552 239.517,150.552 240,151.5C 241.392,148.606 243.559,146.606 246.5,145.5C 256.121,149.455 263.121,156.122 267.5,165.5 Z"/></g>
<g><path style="opacity:1" fill="#e7a32f" d="M 50.5,156.5 C 50.722,153.496 51.722,150.829 53.5,148.5C 54.5585,147.4 55.3918,146.066 56,144.5C 55.8446,146.811 55.8446,149.144 56,151.5C 57,150.5 58,149.5 59,148.5C 59.1667,148.833 59.3333,149.167 59.5,149.5C 58.0368,151.729 57.2035,154.063 57,156.5C 58.5994,154.964 60.4328,154.464 62.5,155C 58.8856,157.785 54.8856,158.285 50.5,156.5 Z"/></g>
<g><path style="opacity:1" fill="#835947" d="M 162.5,150.5 C 161.699,152.042 161.366,153.708 161.5,155.5C 160.749,156.573 159.749,156.74 158.5,156C 159.728,154.51 159.728,153.01 158.5,151.5C 159.708,150.766 161.041,150.433 162.5,150.5 Z"/></g>
<g><path style="opacity:1" fill="#f2bb58" d="M 176.5,156.5 C 176.167,157.167 175.833,157.833 175.5,158.5C 175.167,158.5 174.833,158.5 174.5,158.5C 171.906,149.356 169.906,149.69 168.5,159.5C 167.833,159.5 167.5,159.167 167.5,158.5C 166.766,157.292 166.433,155.959 166.5,154.5C 167.949,150.626 169.782,146.959 172,143.5C 174.016,147.627 175.516,151.96 176.5,156.5 Z"/></g>
<g><path style="opacity:1" fill="#7f543d" d="M 158.5,151.5 C 156.833,151.5 155.167,151.5 153.5,151.5C 153.662,153.527 153.495,155.527 153,157.5C 152.333,156.167 151.667,156.167 151,157.5C 150.536,156.906 150.369,156.239 150.5,155.5C 151.404,154.791 151.737,153.791 151.5,152.5C 152.152,151.275 153.319,150.608 155,150.5C 156.385,150.514 157.551,150.848 158.5,151.5 Z"/></g>
<g><path style="opacity:1" fill="#90c7b9" d="M 189.5,156.5 C 187.833,156.5 186.167,156.5 184.5,156.5C 182.872,153.753 183.538,151.753 186.5,150.5C 189.692,151.548 190.692,153.548 189.5,156.5 Z"/></g>
<g><path style="opacity:1" fill="#e26149" d="M 174.5,158.5 C 172.901,160.729 170.901,161.062 168.5,159.5C 169.906,149.69 171.906,149.356 174.5,158.5 Z"/></g>
<g><path style="opacity:1" fill="#995e30" d="M 167.5,158.5 C 167.5,159.167 167.833,159.5 168.5,159.5C 170.901,161.062 172.901,160.729 174.5,158.5C 174.833,158.5 175.167,158.5 175.5,158.5C 176.978,158.238 178.311,158.571 179.5,159.5C 178.975,160.192 178.308,160.692 177.5,161C 178.308,161.308 178.975,161.808 179.5,162.5C 178.609,163.59 177.609,163.59 176.5,162.5C 175.833,163.167 175.167,163.833 174.5,164.5C 173.167,163.5 171.833,162.5 170.5,161.5C 169.167,162.167 167.833,162.833 166.5,163.5C 163.737,160.877 164.07,159.211 167.5,158.5 Z"/></g>
<g><path style="opacity:1" fill="#60c6cf" d="M 21.5,165.5 C 22.8333,165.5 24.1667,165.5 25.5,165.5C 107.331,165.466 189.331,165.799 271.5,166.5C 279.45,172.719 279.45,178.886 271.5,185C 258.286,189.405 244.953,193.405 231.5,197C 215.252,205.544 197.918,209.71 179.5,209.5C 153.352,207.459 127.186,207.125 101,208.5C 90.8593,209.061 81.3593,206.894 72.5,202C 62.633,192.902 50.9664,187.902 37.5,187C 30.5079,185.258 25.0079,181.425 21,175.5C 20.0135,172.303 20.5135,169.47 22.5,167C 21.944,166.617 21.6107,166.117 21.5,165.5 Z"/></g>
<g><path style="opacity:1" fill="#fcde82" d="M 299.5,213.5 C 299.5,226.833 299.5,240.167 299.5,253.5C 295.103,256.849 290.103,258.183 284.5,257.5C 285.551,267.74 281.551,275.074 272.5,279.5C 271.85,282.655 270.183,285.155 267.5,287C 257.582,289.158 247.748,288.992 238,286.5C 233.839,288.038 229.505,288.705 225,288.5C 212.861,288.172 200.694,288.005 188.5,288C 185.361,287.512 182.528,286.345 180,284.5C 178.225,285.27 176.725,286.437 175.5,288C 155.833,288.667 136.167,288.667 116.5,288C 115.391,287.362 114.225,286.862 113,286.5C 103.148,289.153 93.3148,289.153 83.5,286.5C 78.0203,289.13 72.5203,289.13 67,286.5C 59.4806,289.382 52.1473,289.049 45,285.5C 33.4283,290.987 23.4283,288.987 15,279.5C 14.148,275.482 14.648,271.649 16.5,268C 15.6178,264.559 15.2845,261.059 15.5,257.5C 9.78118,258.168 4.44785,257.168 -0.5,254.5C -0.5,240.833 -0.5,227.167 -0.5,213.5C 20.1937,213.189 40.8603,213.523 61.5,214.5C 70.3243,211.489 78.4909,212.823 86,218.5C 93.6192,212.15 102.119,210.817 111.5,214.5C 158.147,213.556 204.814,213.39 251.5,214C 253.58,214.789 255.414,215.956 257,217.5C 258.194,215.976 259.694,214.81 261.5,214C 274.162,213.5 286.829,213.333 299.5,213.5 Z"/></g>
<g><path style="opacity:1" fill="#ebb567" d="M 44.5,247.5 C 44.5,239.5 44.5,231.5 44.5,223.5C 42.5,223.5 40.5,223.5 38.5,223.5C 38.5,226.5 38.5,229.5 38.5,232.5C 35.9407,232.802 33.6074,232.468 31.5,231.5C 33.5,231.5 35.5,231.5 37.5,231.5C 37.5,228.5 37.5,225.5 37.5,222.5C 40.1667,222.5 42.8333,222.5 45.5,222.5C 45.8261,231.017 45.4927,239.35 44.5,247.5 Z"/></g>
<g><path style="opacity:1" fill="#cb5a28" d="M 31.5,231.5 C 33.6074,232.468 35.9407,232.802 38.5,232.5C 38.5,229.5 38.5,226.5 38.5,223.5C 40.5,223.5 42.5,223.5 44.5,223.5C 44.5,231.5 44.5,239.5 44.5,247.5C 42.5,247.5 40.5,247.5 38.5,247.5C 38.5,244.167 38.5,240.833 38.5,237.5C 35.8333,237.5 33.1667,237.5 30.5,237.5C 30.5,240.833 30.5,244.167 30.5,247.5C 28.5,247.5 26.5,247.5 24.5,247.5C 24.5,239.5 24.5,231.5 24.5,223.5C 26.5,223.5 28.5,223.5 30.5,223.5C 30.1936,226.385 30.5269,229.052 31.5,231.5 Z"/></g>
<g><path style="opacity:1" fill="#cd612c" d="M 1.5,223.5 C 7.83333,223.5 14.1667,223.5 20.5,223.5C 20.5,225.167 20.5,226.833 20.5,228.5C 18.5,228.5 16.5,228.5 14.5,228.5C 14.5,234.833 14.5,241.167 14.5,247.5C 12.1667,247.5 9.83333,247.5 7.5,247.5C 7.5,241.167 7.5,234.833 7.5,228.5C 5.5,228.5 3.5,228.5 1.5,228.5C 1.5,226.833 1.5,225.167 1.5,223.5 Z"/></g>
<g><path style="opacity:1" fill="#dd9048" d="M 157.5,228.5 C 157.5,226.833 157.5,225.167 157.5,223.5C 152.5,223.5 147.5,223.5 142.5,223.5C 142.5,231.5 142.5,239.5 142.5,247.5C 141.507,239.35 141.174,231.017 141.5,222.5C 147.167,222.5 152.833,222.5 158.5,222.5C 158.795,224.735 158.461,226.735 157.5,228.5 Z"/></g>
<g><path style="opacity:1" fill="#cb5c29" d="M 157.5,228.5 C 154.5,228.5 151.5,228.5 148.5,228.5C 148.5,229.833 148.5,231.167 148.5,232.5C 151.167,232.5 153.833,232.5 156.5,232.5C 156.5,234.167 156.5,235.833 156.5,237.5C 153.833,237.5 151.167,237.5 148.5,237.5C 148.5,238.833 148.5,240.167 148.5,241.5C 151.287,242.477 154.287,242.81 157.5,242.5C 157.5,244.167 157.5,245.833 157.5,247.5C 152.5,247.5 147.5,247.5 142.5,247.5C 142.5,239.5 142.5,231.5 142.5,223.5C 147.5,223.5 152.5,223.5 157.5,223.5C 157.5,225.167 157.5,226.833 157.5,228.5 Z"/></g>
<g><path style="opacity:1" fill="#cd612c" d="M 203.5,222.5 C 206.119,222.232 208.619,222.565 211,223.5C 212.202,227.666 213.702,231.666 215.5,235.5C 216.9,231.467 218.4,227.467 220,223.5C 222.381,222.565 224.881,222.232 227.5,222.5C 227.5,230.833 227.5,239.167 227.5,247.5C 225.5,247.5 223.5,247.5 221.5,247.5C 221.666,243.154 221.499,238.821 221,234.5C 219.241,238.009 218.074,241.675 217.5,245.5C 215.833,245.5 214.167,245.5 212.5,245.5C 212.263,242.353 211.43,239.353 210,236.5C 209.501,240.152 209.335,243.818 209.5,247.5C 207.5,247.5 205.5,247.5 203.5,247.5C 203.5,239.167 203.5,230.833 203.5,222.5 Z"/></g>
<g><path style="opacity:1" fill="#dc8d47" d="M 191.5,223.5 C 193.607,222.532 195.941,222.198 198.5,222.5C 198.826,231.017 198.493,239.35 197.5,247.5C 197.5,239.5 197.5,231.5 197.5,223.5C 195.5,223.5 193.5,223.5 191.5,223.5 Z"/></g>
<g><path style="opacity:1" fill="#cb5b28" d="M 56.5,223.5 C 56.5,231.5 56.5,239.5 56.5,247.5C 54.5,247.5 52.5,247.5 50.5,247.5C 50.5,239.5 50.5,231.5 50.5,223.5C 52.5,223.5 54.5,223.5 56.5,223.5 Z"/></g>
<g><path style="opacity:1" fill="#df924b" d="M 1.5,223.5 C 7.97904,222.509 14.6457,222.176 21.5,222.5C 21.7947,224.735 21.4614,226.735 20.5,228.5C 20.5,226.833 20.5,225.167 20.5,223.5C 14.1667,223.5 7.83333,223.5 1.5,223.5 Z"/></g>
<g><path style="opacity:1" fill="#cd622c" d="M 277.5,222.5 C 284.167,222.5 290.833,222.5 297.5,222.5C 297.5,224.5 297.5,226.5 297.5,228.5C 295.5,228.5 293.5,228.5 291.5,228.5C 291.5,234.833 291.5,241.167 291.5,247.5C 289.167,247.5 286.833,247.5 284.5,247.5C 284.5,241.167 284.5,234.833 284.5,228.5C 282.167,228.5 279.833,228.5 277.5,228.5C 277.5,226.5 277.5,224.5 277.5,222.5 Z"/></g>
<g><path style="opacity:1" fill="#e19a51" d="M 56.5,223.5 C 54.5,223.5 52.5,223.5 50.5,223.5C 50.5,231.5 50.5,239.5 50.5,247.5C 49.5073,239.35 49.1739,231.017 49.5,222.5C 52.0593,222.198 54.3926,222.532 56.5,223.5 Z"/></g>
<g><path style="opacity:1" fill="#cc5d2a" d="M 97.5,222.5 C 109.263,222.104 114.097,227.77 112,239.5C 108.88,246.974 103.38,249.474 95.5,247C 89.9473,242.382 88.114,236.549 90,229.5C 91.7668,226.228 94.2668,223.895 97.5,222.5 Z"/></g>
<g><path style="opacity:1" fill="#cd612c" d="M 168.5,222.5 C 174.842,222.334 181.175,222.5 187.5,223C 188.406,224.699 188.739,226.533 188.5,228.5C 186.167,228.5 183.833,228.5 181.5,228.5C 181.5,234.833 181.5,241.167 181.5,247.5C 179.167,247.5 176.833,247.5 174.5,247.5C 174.5,241.167 174.5,234.833 174.5,228.5C 172.5,228.5 170.5,228.5 168.5,228.5C 168.5,226.5 168.5,224.5 168.5,222.5 Z"/></g>
<g><path style="opacity:1" fill="#f9da80" d="M 98.5,228.5 C 101.547,227.855 103.713,228.855 105,231.5C 105.667,234.167 105.667,236.833 105,239.5C 102.333,243.5 99.6667,243.5 97,239.5C 96.013,235.525 96.513,231.859 98.5,228.5 Z"/></g>
<g><path style="opacity:1" fill="#cd602b" d="M 264.5,222.5 C 267.5,222.5 270.5,222.5 273.5,222.5C 276.039,230.782 278.372,239.115 280.5,247.5C 278.167,247.5 275.833,247.5 273.5,247.5C 273.837,244.17 272.337,242.504 269,242.5C 265.663,242.504 264.163,244.17 264.5,247.5C 262.5,247.5 260.5,247.5 258.5,247.5C 260.651,239.228 262.651,230.895 264.5,222.5 Z"/></g>
<g><path style="opacity:1" fill="#d5e9e1" d="M 99.5,232.5 C 100.5,232.5 101.5,232.5 102.5,232.5C 102.5,234.167 102.5,235.833 102.5,237.5C 101.5,237.5 100.5,237.5 99.5,237.5C 99.5,235.833 99.5,234.167 99.5,232.5 Z"/></g>
<g><path style="opacity:1" fill="#f6cd77" d="M 268.5,229.5 C 269.67,231.65 270.67,233.984 271.5,236.5C 270.311,237.429 268.978,237.762 267.5,237.5C 267.575,234.794 267.908,232.127 268.5,229.5 Z"/></g>
<g><path style="opacity:1" fill="#edb968" d="M 31.5,231.5 C 30.5269,229.052 30.1936,226.385 30.5,223.5C 28.5,223.5 26.5,223.5 24.5,223.5C 24.5,231.5 24.5,239.5 24.5,247.5C 23.5073,239.35 23.1739,231.017 23.5,222.5C 26.1667,222.5 28.8333,222.5 31.5,222.5C 31.5,225.5 31.5,228.5 31.5,231.5 Z"/></g>
<g><path style="opacity:1" fill="#cc5e2a" d="M 65.5,222.5 C 70.2407,221.963 74.574,222.963 78.5,225.5C 77.8333,227.5 76.5,228.833 74.5,229.5C 72.5914,228.652 70.5914,228.318 68.5,228.5C 68.5,229.5 68.5,230.5 68.5,231.5C 74.4445,231.944 78.1112,234.944 79.5,240.5C 78.2971,245.775 74.9638,248.108 69.5,247.5C 65.8286,247.996 62.8286,246.829 60.5,244C 61.6853,242.647 63.0186,241.48 64.5,240.5C 66.059,241.447 67.7257,242.113 69.5,242.5C 71.0004,242.547 72.0004,241.881 72.5,240.5C 70.5839,238.683 68.2506,237.516 65.5,237C 60.2018,232.092 60.2018,227.258 65.5,222.5 Z"/></g>
<g><path style="opacity:1" fill="#cc5e2a" d="M 116.5,222.5 C 118.924,222.192 121.257,222.526 123.5,223.5C 126.194,227.554 128.361,231.888 130,236.5C 130.499,231.845 130.666,227.179 130.5,222.5C 132.5,222.5 134.5,222.5 136.5,222.5C 136.5,230.833 136.5,239.167 136.5,247.5C 134.076,247.808 131.743,247.474 129.5,246.5C 127.349,242.198 125.182,237.864 123,233.5C 122.501,238.155 122.334,242.821 122.5,247.5C 120.5,247.5 118.5,247.5 116.5,247.5C 116.5,239.167 116.5,230.833 116.5,222.5 Z"/></g>
<g><path style="opacity:1" fill="#e7aa5f" d="M 38.5,247.5 C 37.5233,244.713 37.19,241.713 37.5,238.5C 35.5,238.5 33.5,238.5 31.5,238.5C 31.81,241.713 31.4767,244.713 30.5,247.5C 30.5,244.167 30.5,240.833 30.5,237.5C 33.1667,237.5 35.8333,237.5 38.5,237.5C 38.5,240.833 38.5,244.167 38.5,247.5 Z"/></g>
<g><path style="opacity:1" fill="#dd904b" d="M 148.5,241.5 C 151.833,241.5 155.167,241.5 158.5,241.5C 158.795,243.735 158.461,245.735 157.5,247.5C 157.5,245.833 157.5,244.167 157.5,242.5C 154.287,242.81 151.287,242.477 148.5,241.5 Z"/></g>
<g><path style="opacity:1" fill="#cc5b29" d="M 191.5,223.5 C 193.5,223.5 195.5,223.5 197.5,223.5C 197.5,231.5 197.5,239.5 197.5,247.5C 195.5,247.5 193.5,247.5 191.5,247.5C 191.5,239.5 191.5,231.5 191.5,223.5 Z"/></g>
<g><path style="opacity:1" fill="#cf642e" d="M 232.5,222.5 C 237.833,222.5 243.167,222.5 248.5,222.5C 248.5,224.5 248.5,226.5 248.5,228.5C 245.5,228.5 242.5,228.5 239.5,228.5C 239.5,229.833 239.5,231.167 239.5,232.5C 242.167,232.5 244.833,232.5 247.5,232.5C 247.5,234.167 247.5,235.833 247.5,237.5C 244.833,237.5 242.167,237.5 239.5,237.5C 239.5,238.833 239.5,240.167 239.5,241.5C 242.833,241.5 246.167,241.5 249.5,241.5C 249.5,243.5 249.5,245.5 249.5,247.5C 243.833,247.5 238.167,247.5 232.5,247.5C 232.5,239.167 232.5,230.833 232.5,222.5 Z"/></g>
<g><path style="opacity:1" fill="#cd602b" d="M 208.5,253.5 C 211.5,253.5 214.5,253.5 217.5,253.5C 219.818,261.479 222.151,269.479 224.5,277.5C 222.257,278.474 219.924,278.808 217.5,278.5C 217.579,277.07 217.246,275.736 216.5,274.5C 213.914,273.52 211.247,273.187 208.5,273.5C 208.5,275.167 208.5,276.833 208.5,278.5C 206.076,278.808 203.743,278.474 201.5,277.5C 204.455,269.677 206.789,261.677 208.5,253.5 Z"/></g>
<g><path style="opacity:1" fill="#cd612d" d="M 151.5,253.5 C 155.846,253.334 160.179,253.501 164.5,254C 170.059,255.458 171.892,258.958 170,264.5C 169.15,266.01 168.317,267.51 167.5,269C 168.697,271.894 170.03,274.727 171.5,277.5C 164.944,279.958 161.611,277.625 161.5,270.5C 160.5,270.5 159.5,270.5 158.5,270.5C 158.5,273.167 158.5,275.833 158.5,278.5C 156.167,278.5 153.833,278.5 151.5,278.5C 151.5,270.167 151.5,261.833 151.5,253.5 Z"/></g>
<g><path style="opacity:1" fill="#cc5f2b" d="M 226.5,253.5 C 229.167,253.5 231.833,253.5 234.5,253.5C 237.167,270.833 239.833,270.833 242.5,253.5C 245.167,253.5 247.833,253.5 250.5,253.5C 250.5,261.833 250.5,270.167 250.5,278.5C 248.5,278.5 246.5,278.5 244.5,278.5C 245.326,264.062 243.993,263.396 240.5,276.5C 239.167,276.5 237.833,276.5 236.5,276.5C 233.007,263.396 231.674,264.062 232.5,278.5C 230.5,278.5 228.5,278.5 226.5,278.5C 226.5,270.167 226.5,261.833 226.5,253.5 Z"/></g>
<g><path style="opacity:1" fill="#cfeaed" d="M 299.5,253.5 C 299.5,268.833 299.5,284.167 299.5,299.5C 199.5,299.5 99.5,299.5 -0.5,299.5C -0.5,284.5 -0.5,269.5 -0.5,254.5C 4.44785,257.168 9.78118,258.168 15.5,257.5C 15.2845,261.059 15.6178,264.559 16.5,268C 14.648,271.649 14.148,275.482 15,279.5C 23.4283,288.987 33.4283,290.987 45,285.5C 52.1473,289.049 59.4806,289.382 67,286.5C 72.5203,289.13 78.0203,289.13 83.5,286.5C 93.3148,289.153 103.148,289.153 113,286.5C 114.225,286.862 115.391,287.362 116.5,288C 136.167,288.667 155.833,288.667 175.5,288C 176.725,286.437 178.225,285.27 180,284.5C 182.528,286.345 185.361,287.512 188.5,288C 200.694,288.005 212.861,288.172 225,288.5C 229.505,288.705 233.839,288.038 238,286.5C 247.748,288.992 257.582,289.158 267.5,287C 270.183,285.155 271.85,282.655 272.5,279.5C 281.551,275.074 285.551,267.74 284.5,257.5C 290.103,258.183 295.103,256.849 299.5,253.5 Z"/></g>
<g><path style="opacity:1" fill="#ce612c" d="M 90.5,278.5 C 90.6658,273.821 90.4992,269.155 90,264.5C 89.2086,265.745 88.7086,267.078 88.5,268.5C 87.2264,270.993 86.5597,273.659 86.5,276.5C 84.8333,276.5 83.1667,276.5 81.5,276.5C 81.3059,273.67 80.6392,271.004 79.5,268.5C 79.1077,266.821 78.6077,265.154 78,263.5C 77.5007,268.489 77.3341,273.489 77.5,278.5C 75.8333,278.5 74.1667,278.5 72.5,278.5C 72.5,270.167 72.5,261.833 72.5,253.5C 74.924,253.192 77.2573,253.526 79.5,254.5C 81.2779,258.39 82.7779,262.39 84,266.5C 85.5983,262.539 87.0983,258.539 88.5,254.5C 91.0865,253.52 93.7531,253.187 96.5,253.5C 96.5,261.833 96.5,270.167 96.5,278.5C 94.5,278.5 92.5,278.5 90.5,278.5 Z"/></g>
<g><path style="opacity:1" fill="#fce285" d="M 158.5,259.5 C 160.167,259.5 161.833,259.5 163.5,259.5C 164.167,263.5 162.5,265.167 158.5,264.5C 158.5,262.833 158.5,261.167 158.5,259.5 Z"/></g>
<g><path style="opacity:1" fill="#cc612b" d="M 130.5,253.5 C 135.833,253.5 141.167,253.5 146.5,253.5C 146.5,255.5 146.5,257.5 146.5,259.5C 143.5,259.5 140.5,259.5 137.5,259.5C 137.5,260.5 137.5,261.5 137.5,262.5C 139.857,262.337 142.19,262.503 144.5,263C 145.406,264.699 145.739,266.533 145.5,268.5C 142.5,268.5 139.5,268.5 136.5,268.5C 136.5,269.833 136.5,271.167 136.5,272.5C 139.833,272.5 143.167,272.5 146.5,272.5C 146.5,274.5 146.5,276.5 146.5,278.5C 141.167,278.5 135.833,278.5 130.5,278.5C 130.5,270.167 130.5,261.833 130.5,253.5 Z"/></g>
<g><path style="opacity:1" fill="#cc5e2a" d="M 29.5,253.5 C 33.5463,253.15 37.3797,253.817 41,255.5C 41.7112,257.367 41.2112,258.867 39.5,260C 36.8394,259.402 34.1727,259.568 31.5,260.5C 35.258,262.461 38.758,264.795 42,267.5C 43.3785,271.898 42.2118,275.398 38.5,278C 34.8333,278.667 31.1667,278.667 27.5,278C 23.7493,275.693 23.9159,273.527 28,271.5C 30.5209,272.673 33.0209,272.673 35.5,271.5C 32.2142,269.388 29.0476,267.055 26,264.5C 24.6628,259.916 25.8295,256.249 29.5,253.5 Z"/></g>
<g><path style="opacity:1" fill="#cc602b" d="M 188.5,253.5 C 192.546,253.15 196.38,253.817 200,255.5C 200.711,257.367 200.211,258.867 198.5,260C 195.839,259.402 193.173,259.568 190.5,260.5C 187.952,264.306 187.952,268.14 190.5,272C 193.614,272.123 196.614,272.29 199.5,272.5C 201.973,274.098 201.973,275.598 199.5,277C 186.197,280.366 180.363,275.199 182,261.5C 183.479,258.172 185.645,255.506 188.5,253.5 Z"/></g>
<g><path style="opacity:1" fill="#f1c26f" d="M 212.5,259.5 C 213.913,262.219 214.58,265.219 214.5,268.5C 213.167,268.5 211.833,268.5 210.5,268.5C 210.916,265.417 211.583,262.417 212.5,259.5 Z"/></g>
<g><path style="opacity:1" fill="#ce642e" d="M 46.5,253.5 C 48.8333,253.5 51.1667,253.5 53.5,253.5C 53.3338,259.509 53.5005,265.509 54,271.5C 56,272.833 58,272.833 60,271.5C 60.4995,265.509 60.6662,259.509 60.5,253.5C 62.8333,253.5 65.1667,253.5 67.5,253.5C 67.6662,259.509 67.4995,265.509 67,271.5C 65.7085,273.249 64.5418,275.082 63.5,277C 57.6369,279.67 52.4703,278.837 48,274.5C 46.661,267.574 46.161,260.574 46.5,253.5 Z"/></g>
<g><path style="opacity:1" fill="#cd612c" d="M 255.5,253.5 C 260.913,253.229 266.246,253.729 271.5,255C 274.902,258.719 275.402,262.886 273,267.5C 270.016,270.1 266.516,271.1 262.5,270.5C 262.5,273.167 262.5,275.833 262.5,278.5C 260.167,278.5 257.833,278.5 255.5,278.5C 255.5,270.167 255.5,261.833 255.5,253.5 Z"/></g>
<g><path style="opacity:1" fill="#f9d57c" d="M 262.5,259.5 C 264.5,259.5 266.5,259.5 268.5,259.5C 269.168,264.161 267.168,266.161 262.5,265.5C 262.5,263.5 262.5,261.5 262.5,259.5 Z"/></g>
<g><path style="opacity:1" fill="#de9f54" d="M 79.5,268.5 C 78.8333,271.833 78.1667,275.167 77.5,278.5C 77.3341,273.489 77.5007,268.489 78,263.5C 78.6077,265.154 79.1077,266.821 79.5,268.5 Z"/></g>
<g><path style="opacity:1" fill="#cd612c" d="M 101.5,253.5 C 103.924,253.192 106.257,253.526 108.5,254.5C 110.497,258.657 111.997,262.99 113,267.5C 114.764,262.958 116.264,258.292 117.5,253.5C 120.167,253.5 122.833,253.5 125.5,253.5C 125.5,261.833 125.5,270.167 125.5,278.5C 123.5,278.5 121.5,278.5 119.5,278.5C 119.666,274.154 119.499,269.821 119,265.5C 117.848,268.44 116.848,271.44 116,274.5C 114.688,276.658 113.022,276.991 111,275.5C 110.197,272.756 109.197,270.089 108,267.5C 107.501,271.152 107.335,274.818 107.5,278.5C 105.5,278.5 103.5,278.5 101.5,278.5C 101.5,270.167 101.5,261.833 101.5,253.5 Z"/></g>
<g><path style="opacity:1" fill="#e5a259" d="M 90.5,278.5 C 89.8333,275.167 89.1667,271.833 88.5,268.5C 88.7086,267.078 89.2086,265.745 90,264.5C 90.4992,269.155 90.6658,273.821 90.5,278.5 Z"/></g>
</svg>
