<svg xmlns="http://www.w3.org/2000/svg" viewBox="0 0 300 300"><title>Asset 2</title><g id="Layer_2" data-name="Layer 2"><g id="Layer_1-2" data-name="Layer 1"><path d="M.12723,213.95429q0-104.608-.12715-209.21564C-.0109.46785,1.13843-.00487,4.973.00005q145.027.18615,290.05416,0c3.8347-.00493,4.98378.46806,4.9728,4.73869q-.269,104.60726-.12715,209.21556c-1.97741,1.95979-4.52274,1.88483-7.01382,1.904-7.48223.05767-14.9649.03376-22.44722.01631-3.6751-.00857-7.29965-.00729-10.611,2.02384a4.70918,4.70918,0,0,1-5.23173.05416c-3.43018-2.33631-7.26341-2.09067-11.07291-2.06145-22.76749.17455-45.53608-.17629-68.30167.03668-17.44373.16318-34.88335-.2517-52.32535-.05753-6.7732.07542-13.50763.97776-20.32571-.65625-3.88319-.93064-7.90087.78963-11.40509,2.80476-3.32743,1.91347-6.47759,2.1798-9.88336.24369a20.33477,20.33477,0,0,0-16.30658-2.2146c-3.74341,1.07622-7.60012-.18832-11.41626-.18025q-22.69644.048-45.39332-.00685C5.34214,215.85049,2.41913,216.1737.12723,213.95429Z" fill="#cfeaed"/><path d="M.12723,213.95429c18.64542-.0237,37.2963-.2991,55.93241.10578a79.27857,79.27857,0,0,0,13.683-.81667c4.95194-.74238,9.5689,1.23007,13.56324,4.02646,2.20553,1.54409,3.55306,1.33558,5.62618-.09719,5.44744-3.76487,11.56287-5.34859,17.97742-3.16193,5.37023,1.83065,10.45338-.58027,15.73188-.23164,13.75141.90823,27.58219.51436,41.331.58664,13.2293.06958,26.55892-.18829,39.83952-.425,14.25727-.25411,28.52313.00743,42.78344-.13548,3.85587-.03864,6.75518,1.75939,10.089,3.14436,2.58926,1.07566,5.69679-3.35061,9.73069-3.21606,11.14267.37171,22.30394.186,33.45786.22074v39.9732c-1.65417,3.909-5.12849,5.078-8.84649,5.49683-3.03914.34242-4.30451,1.7835-4.6212,4.73883-.71552,6.67783-3.73536,11.98052-9.73911,15.386a7.43637,7.43637,0,0,0-3.07289,3.18634c-3.07774,6.21794-8.4956,7.724-14.93767,7.85228-9.732.19375-19.39111-.87127-29.20622-.27246a250.17134,250.17134,0,0,1-35.80993.079,137.259,137.259,0,0,0-23.65451-.3695,264.92361,264.92361,0,0,1-47.26277.257c-8.8942-.83462-17.55185,1.15687-26.2627.16767-9.05843-1.02867-18.15716.63062-27.174-.77441-2.72982-.42541-5.26475.87911-7.8955.79573-9.80972-.31095-19.54993-1.67674-29.45037-.13364-4.165.64916-8.449-1.55353-12.06661-4.1094-5.09328-3.59842-7.57822-8.273-5.85039-14.63954a15.94429,15.94429,0,0,0,.6634-3.92351c.10588-6.44133-.37091-7.07332-6.784-8.25289-3.45738-.636-6.30393-2.06594-7.77462-5.48433Z" fill="#fddf82"/><path d="M.12723,253.92749c3.51656,2.75456,7.3619,4.48448,11.97109,3.89817,2.98814-.38011,4.2191.86,4.0474,3.9502-.22291,4.01187.97007,7.85323-.70644,12.09575-1.836,4.64614,1.78225,9.82208,7.61207,12.41934,6.57556,2.92946,13.36008,4.19482,20.15826.55975,1.65733-.88619,2.9644-.66268,4.65062.0824a22.50921,22.50921,0,0,0,16.97729.90506,8.3423,8.3423,0,0,1,5.29848.10287,19.00106,19.00106,0,0,0,12.23253-.326c.61242-.24233,1.34229-.69247,1.87984-.54459,9.9675,2.74142,19.84789,1.04748,29.897.43269,5.06316-.30976,10.74106,1.16536,16.19073,1.13321,10.462-.06169,20.93526.77878,31.38632-.53391,3.6177-.45438,7.52862,1.94843,10.83354.2531,6.052-3.10461,11.5058-2.00211,17.45328.16514,2.79129,1.01717,6.25016.21,9.40652.215,9.09715.01431,18.252.66963,27.27677-.13373,11.18493-.99558,22.26317.19576,33.38622.12028,5.37587-.03653,10.38035-1.12086,11.90332-7.458.42207-1.75636,1.88442-2.25105,3.193-2.87316,6.82764-3.246,9.5957-9.01733,9.58643-16.15138-.0046-3.53376,1.10874-4.78076,4.57373-4.488,4.03268.34074,7.372-1.58622,10.53759-3.82419,0,14.13914-.08644,28.27926.07318,42.4166.03184,2.8179-.36218,3.67371-3.50791,3.65151-25.11205-.17731-50.22588-.09893-75.33917-.09893q-108.51936,0-217.03852.10329c-3.53694.00671-4.07921-.856-4.02694-4.15563C.25471,281.87506.12723,267.90027.12723,253.92749Z" fill="#cfeaed"/><path d="M274.79049,166.26859c-1.16134.71243-3.22218.53585-1.0838,3.04877,6.397,7.51736,4.65492,13.214-4.65837,17.17588-11.07452,4.71109-23.04513,6.3904-34.35743,10.30274a125.10529,125.10529,0,0,0-13.48818,5.14761c-16.27031,7.82312-33.5871,8.81088-51.15472,7.48111-19.74716-1.49475-39.47313-2.41778-59.25493-.71842-16.57157,1.42358-32.11131-1.022-45.63608-11.81225a42.6001,42.6001,0,0,0-21.98276-8.75122,38.58385,38.58385,0,0,1-8.66848-2.19945c-11.29415-4.08015-14.1289-8.62349-12.36358-19.67248a2.68675,2.68675,0,0,1,2.56073-1.11221c14.60461.75953,29.3145,1.25032,43.7993-.03927,11.29641-1.0057,22.51348-1.05833,33.75337-1.03551,23.72559.04814,47.44873-.25693,71.18554.41755,10.87692.30907,21.88485-.34619,32.83478-.49669a24.765,24.765,0,0,1,7.41532.65567c4.705,1.25773,9.5159.814,14.291.83114,11.396.04086,22.79223.0019,34.1883.02249a23.68428,23.68428,0,0,0,7.34954-.83C271.50711,164.4477,273.48328,164.25013,274.79049,166.26859Z" fill="#60c6cf"/><path d="M163.96721,23.03179c13.97425.48285,26.313,5.95152,38.09724,12.82921,7.44242,4.34368,14.66267,9.10092,19.93772,16.18144a10.51487,10.51487,0,0,1-8.21143,8.26043c-5.156,1.24443-9.54454,4.57816-15.88734,4.53954,1.90739,1.9014,3.40107,1.4459,4.67215,1.45331,9.61435.056,19.22942-.02212,28.84346.06394,2.25715.0202,4.719-.37769,6.44753,1.74422q6.91884,12.56312,13.84007,25.12489c.86181,1.56259,2.12692,3.01723,1.21812,5.00658-2.52209,1.74-4.36762-.09211-6.2442-1.28422-4.59417-2.91848-8.796-6.41763-13.45487-9.24287-6.03665-3.66079-6.68111-3.40729-12.30774.64015-3.67992,2.64708-6.0206,7.21863-11.09631,7.90061-5.55562-1.0257-11.04377-2.37333-16.57327-3.52748a15.56772,15.56772,0,0,1-8.40024-5.08711,44.01554,44.01554,0,0,0-17.15849-11.66525c-6.398-2.45089-11.17931-7.04953-15.22283-12.46842a3.72961,3.72961,0,0,1-.25643-1.47387c.43833-2.79554,2.69825-4.05608,4.72555-5.45608a30.80889,30.80889,0,0,0,10.46285-11.79153c2.77857-5.67162,2.29009-11.22235-1.27829-16.51241C165.064,26.70061,163.17836,25.3898,163.96721,23.03179Z" fill="#fbdec6"/><path d="M153.01467,62.88948a50.73111,50.73111,0,0,0,21.15413,14.237c3.80459,1.313,6.85845,4.07216,9.3779,7.19131,3.874,4.79619,8.79035,7.17674,14.88568,7.91372,3.899.47141,7.68334,1.89191,11.51908,2.88692,5.72617,1.776,11.41141,3.63856,16.10509,7.59874,3.44219.84946,7.02437.821,10.44919,1.71114,1.96022.11287,2.383-1.536,3.10261-2.77921,1.41022-2.4363,3.17983-2.156,3.88678.1098,2.11735,6.78616,8.38079,7.38208,13.54941,9.64913a15.5792,15.5792,0,0,1,1.88887.57533,2.26233,2.26233,0,0,1,.80421,2.168c-.06787,4.38656.021,8.7875-1.40612,13.03055-.67783,2.01525-1.16329,4.13431-3.25517,5.26977-5.25878-.04691-3.93965-4.64668-5.03264-6.90487.31794,2.94051.87836,6.5013-3.54644,8.11885-7.55488-.83605-15.06616-2.08712-22.71362-1.92233-1.92392.04145-4.0651-.05045-5.05035-2.32418,1.04588-2.04857,2.75566-1.03407,4.26159-.92094,3.68127-1.69748,3.68127-1.69748,3.51086-7.06021-.26576,2.53-.27255,5.15846-2.62286,6.89833-2.21679.53324-2.89751-.96868-3.46128-2.61654a55.05336,55.05336,0,0,1-1.51013-6.97168c-.01778-.94927-.73235-.74216-.067-.77442a1.19849,1.19849,0,0,1,.03467.42486c-.0155,1.83791,1.11324,4.10081-1.79584,4.872-2.09738-1.21816-2.25283-3.47831-2.93519-5.41208-2.70368,10.00933-3.62121,10.81028-8.49249,7.151-.28428,2.15142,1.029,2.32424,2.5655,2.56064,1.565.24081,3.84515-.25312,3.6562,2.58979-1.708,1.6962-3.92389,1.77412-6.05614,1.6969-9.99954-.36215-19.80385,1.41742-29.671,2.52977-2.77351.31264-5.67842.91879-7.73975-1.84431-1.09321-3.475,1.31117-5.5866,3.13974-7.90714,5.10355-6.4767,4.09761-10.09748-3.67082-13.09466-1.86411-.7192-3.82054-1.19943-5.63292-2.0443-4.9889-2.32565-6.12194-7.2078-2.68173-11.50572a17.032,17.032,0,0,1,5.50338-4.23928,41.23382,41.23382,0,0,0,5.59209-3.28846c4.01654-3.02853,3.89571-4.892-.59281-7.15079a63.40781,63.40781,0,0,0-11.78415-4.0733c-2.05027-.56675-4.335-.88664-5.19266-3.35912C153.907,71.54521,151.5252,67.22714,153.01467,62.88948Z" fill="#66a99a"/><path d="M44.13573,116.04073c4.611-13.12134,9.448-26.1408,17.07463-37.90314,5.73458,4.35553,11.23432,9.01027,16.98947,13.33959.90178,8.25621,5.69708,11.42073,13.75933,11.443,3.51817.00972,4.71058,3.09892,4.16871,6.626-.80447,5.23632-.19245,6.05986,5.08009,7.26409,3.25593.74366,6.611.669,9.9124.90563,8.93678.64049,17.83039,1.55217,26.66479,3.05231,7.47312,1.59518,14.41294,4.70753,21.43876,7.56984,1.6664.67888,3.44254,1.24739,4.465,2.94174a3.78915,3.78915,0,0,1-.54385,4.14285c-6.36849,2.77832-13.2735,2.2465-19.93844,2.98739a97.89576,97.89576,0,0,1-23.20371.01467c-2.4997-.95747-3.507-3.24036-4.66472-5.3724-1.07372-1.97733-2.26189-3.6598-4.92647-2.657-4.63789,1.39584-9.46563,1.57115-14.21661,2.16858a17.34631,17.34631,0,0,0-6.98951,2.28159c-4.056,1.02425-7.69482-.11964-11.16448-2.1484-1.60313-1.55009-1.34058-3.45386-1.17605-5.40162-.21507,1.825-.0148,3.83308-1.66767,5.17915a3.3758,3.3758,0,0,1-4.32357-.48909c-1.38246-2.57417-.233-6.60043-5.05108-7.28118-1.8204-.2572-1.549-3.69287-2.73186-6.11932.544,5.24689-3.65475,6.65387-6.37651,7.14545-2.70758.489-2.35572-3.62458-3.19553-5.74742.36518,3.66514-4.74669,8.23539,1.77886,11.07394-.57923,2.61874-2.62419,2.28335-4.51594,2.23286-.91443-.02439-2.5059-1.3-2.02543,1.14453a2.74475,2.74475,0,0,1-2.381.01286c-3.08183-3.89684-2.96843-8.487-2.70577-13.052C43.772,119.61455,44.34021,117.8603,44.13573,116.04073Z" fill="#559787"/><path d="M80.00333,55.01652C81.69155,49.86175,86.601,47.72634,90.2609,44.575c6.5052-5.60121,13.59842-10.5133,21.783-13.53335,2.27753-.47233,3.74162,1.04684,5.26533,2.26,2.76047,2.19792,5.95153,3.57845,9.05446,5.16584,4.74978,2.42986,5.82419,5.94221,3.57848,10.76019a30.4235,30.4235,0,0,1-5.95175,7.92381c-8.76942,9.221-8.83591,15.212-.29868,24.40553a6.13034,6.13034,0,0,1,.84164,1.23319,3.607,3.607,0,0,1,.24055,1.53619c-1.18735,4.2064-4.87077,6.2065-8.08509,8.23073a37.79771,37.79771,0,0,1-21.36033,6.191c-2.38981-5.22351-9.14841-4.95933-12.0415-9.561-8.95636.48583-12.45962-8.00341-18.96689-11.55094-.251-.13683-.29306-.56321-.33318-.89927-2.00377-2.60079.56956-4.05017,1.657-5.62032,2.62493-3.79025,5.58673-7.34712,8.4127-10.99809,1.99369-2.47543,4.94858-1.08958,7.41544-1.83016C81.42675,56.98743,79.28354,56.6272,80.00333,55.01652Z" fill="#fbdec6"/><path d="M124.0441,83.06154c-8.69131-3.44108-12.137-17.15549-2.22839-26.16672a32.98809,32.98809,0,0,0,7.00659-8.8179c2.20627-4.0703.5916-6.635-2.71624-7.96738A51.37675,51.37675,0,0,1,112.04369,31.042a74.91688,74.91688,0,0,1,32.7345-8.82685c6.35911-.26471,12.87768-1.242,19.18939.81711,5.0076,5.65492,8.71894,11.72869,5.99815,19.71064-2.09615,6.14944-6.20118,10.75492-11.353,14.56268-1.96487,1.45223-4.4567,2.31125-5.62013,4.72616-1.25511,1.28315-2.04359,2.96407-3.476,4.09908-3.078,3.00287-6.21328,5.85417-10.86759,6.12294-1.859.10735-2.76763,1.70159-3.64466,3.07692-1.81981,2.85381-4.44819,4.86011-7.03251,6.90443C126.85873,83.11565,125.67024,84.31968,124.0441,83.06154Z" fill="#fbf1e4"/><path d="M63.987,76.737c5.4187,2.02446,9.2094,6.35038,13.71121,9.67359,1.48665,1.09743,2.82162,4.09307,4.986.70454.44792,1.95562,3.41835-2.21247,3.3201,1.403-.03383,1.24475,3.16583,2.6804,5.00185,3.04475,3.43444.68158,3.2429,3.92767,4.08032,6.40894,6.7691-.06192,12.20582,3.19813,17.38071,7.04391a15.86366,15.86366,0,0,0,10.60205,3.4,6.875,6.875,0,0,1,4.72453,1.10989c-1.00668,3.23273-1.38533,3.36686-4.95692,1.92325,3.78564,2.13392,7.73558,3.96735,11.54207,6.06227,1.77777.9784,4.09261,1.71087,3.64374,4.55117-12.01359-1.18373-24.00256-2.60739-36.074-3.20489a19.62049,19.62049,0,0,1-7.076-2.20326c-2.53252-1.19657-2.072-3.44072-1.18488-5.592,2.25028-5.45679,1.39117-6.83475-4.3691-7.0325-9.43256-.32382-9.43128-.34954-11.52824-9.22748-.71641-3.033-1.84511-5.66311-5.652-5.96287-4.20107-.33081-5.88549-3.89592-8.01-6.79541-.96106-1.31163-1.21446-3.14672-2.91836-3.90637C61.71765,76.84125,62.92537,76.934,63.987,76.737Z" fill="#6eb4a2"/><path d="M254.87089,131.94265c3.26927-5.47958,2.153-12.15932,4.86683-17.79112,2.09337,7.01868,4.43172,13.90227,9.928,19.17248a4.25177,4.25177,0,0,1,1.08056,2.03583c-5.571,4.63415,1.33106,6.21985,2.3153,9.15773.73829,2.20369,4.83043,2.87168,4.22871,5.31055-.53287,2.15972-4.29537.73018-6.24336,2.41088a24.51063,24.51063,0,0,0,15.14922,11.59443c-4.25088,2.56064-7.947,1.8952-11.403,2.43469q-2.44224-.12572-4.87922-.25239c-3.34372-2.10412-4.72643-5.83057-7.11039-8.72709-3.53932-4.30025-7.391-8.27624-11.30284-12.21555C253.25184,140.86122,252.099,135.89728,254.87089,131.94265Z" fill="#296156"/><path d="M258.93341,111.98334c-.64652.478-1.316,1.39683-1.93589,1.36452-5.13979-.26786-12.99323-6.46134-14.63394-11.34236a6.14272,6.14272,0,0,0-.78013-1.10767c-1.46235,1.81963-.76238,5.68585-4.53784,5.10964-1.57305-.58305-.86067-3.741-4.0278-3.025-1.49288.33749-1.01583-2.67977-1.58793-4.18758.26594-.49641-.74249.32732-.08409.22628.36256-.05565.24041.0433.0998.45583-.35933,1.05414-1.54035,2.20135-2.00852,1.88431-3.54181-2.39848-3.01337,1.94175-4.61666,2.63136-4.3085-4.04444-10.59493-4.77374-14.86929-8.87456,4.56728-1.60949,7.30612-5.61574,10.66031-8.65883,4.27669-3.88,8.03218-3.84085,12.37257-.81942,4.33,3.01418,8.64845,6.045,12.98315,9.05234,2.15488,1.495,4.12217,3.3725,6.95651,3.54124C256.45486,102.15029,257.15729,107.30153,258.93341,111.98334Z" fill="#97cbbe"/><path d="M237.86654,68.10388c-12.98435-.01722-25.969-.00092-38.95274-.09731-1.49481-.01109-3.93988.9779-4.27513-1.15945-.28739-1.83216,1.8678-3.68964,3.52508-3.58466,5.62846.35653,9.60908-4.214,15.11575-4.41467,4.027-.14674,5.33392-5.08764,8.72189-6.80514,5.94483-1.26561,10.62723.92382,15.67107,4.14995,4.431,2.83412,8.13959,7.1037,13.64847,8.26481a2.29431,2.29431,0,0,1,1.9829,2.50847c-.32876,1.51932-1.87888,1.03909-2.95605,1.0582C246.18821,68.09786,242.02709,68.08467,237.86654,68.10388Z" fill="#fdfdfc"/><path d="M44.13573,116.04073c2.11943,4.57421.33514,9.65676,1.86492,14.332.39018,1.19248-.05141,2.64412,1.05693,3.65529.876.69218,2.63036,1.04281,2.42247,2.19755-.95942,5.32908,3.51361,8.14617,5.30763,12.18339-.6649,3.10164-.88974,6.46118-4.52967,7.8453a3.1863,3.1863,0,0,1-1.46923-1.56353c-2.36776-4.19545-5.65854-5.361-10.31583-3.67179-4.31639,1.56558-6.88668,4.92937-9.04,8.72849a7.87328,7.87328,0,0,1-.73274,1.16862c-1.98264,1.33583-1.29667,5.07774-4.64677,5.18475q-.95736.08459-1.913.16961c-.3258-.05544-.65243-.11761-.98107-.16614-1.75068-.25856-4.36253.19011-4.74465-1.7515-.41426-2.1049,2.40308-2.34165,3.85033-3.23317a33.01941,33.01941,0,0,0,6.938-5.63085c2.45256-2.63343,4.49953-5.13732-1.48078-6.55981,2.20952-2.12841,4.26452-3.63822,5.67373-5.60978,1.18923-1.6638,4.52411-3.19892,1.3645-6.09684-.70834-.64968.38185-1.43354.89341-2.02674C38.51544,129.55814,41.19711,122.72946,44.13573,116.04073Z" fill="#296156"/><path d="M80.00333,55.01652c1.62624,1.53473,4.43272,1.65274,5.36654,5.10073-3.89011,0-7.60152,0-11.31307.00065q-4.60327.001-9.20627.00065l-.14895-1.30442C69.80656,57.56332,73.58457,51.76793,80.00333,55.01652Z" fill="#fbfcfb"/><path d="M239.02225,267.5999c1.43535-4.06338,2.72159-6.91672,3.42642-9.90711.80947-3.43432,2.956-3.87332,5.913-3.68037,3.64931.23814,2.46667,2.931,2.5093,4.8083.1245,5.48052.01538,10.966.04679,16.44927.01146,2.0015-.14581,3.54127-2.83623,3.6011-2.83114.06292-3.337-1.3634-3.23839-3.70586a21.12473,21.12473,0,0,0-.77333-7.37414c-.85622,2.2523-1.69335,4.51211-2.57693,6.75362-.42792,1.08563-.88291,2.16075-2.33519,2.25459-1.6296.10531-2.405-.85779-2.92915-2.18274a27.75994,27.75994,0,0,0-3.298-6.57213c0,2.43278-.05333,4.8671.01634,7.2979.05922,2.0656-.241,3.51684-2.889,3.51522-2.44107-.00149-3.1633-1.03-3.13109-3.30058.08485-5.98076.01465-11.96357.043-17.94537.0077-1.62318-.296-3.6134,2.26814-3.53173,2.01283.06412,4.47361-.93445,5.526,1.96079C236.00774,259.46214,237.27941,262.87352,239.02225,267.5999Z" fill="#cc5d2b"/><path d="M90.075,266.9253c-.99821,2.60681-2.0298,5.20147-2.97981,7.82572a2.57414,2.57414,0,0,1-2.49253,2.0305,2.49792,2.49792,0,0,1-2.55624-1.93486c-.98424-2.62364-2.0059-5.23325-3.26037-8.49339,0,3.49342-.0481,6.26259.01578,9.02919.048,2.07729-.27592,3.50284-2.92846,3.47573-2.50658-.02565-3.09418-1.20122-3.06851-3.39585.068-5.8213.00189-11.644.03571-17.46589.01025-1.76622-.42089-3.85316,2.44887-3.94347,2.37546-.07476,4.61123-.27833,5.53435,2.77222.99187,3.27768,2.3093,6.45683,3.87921,10.76055,1.48265-4.13877,2.746-7.17692,3.64766-10.31886.91274-3.1805,3.12577-3.41238,5.80721-3.22284,3.09547.21878,2.57678,2.50723,2.5945,4.41363.051,5.48894.00446,10.97873.02433,16.468.00784,2.16615-.17389,3.92272-3.11992,3.94276-2.8951.01967-3.2968-1.71845-3.26281-3.86929.04175-2.64185.24172-5.28122.3733-7.92166Z" fill="#cb5c29"/><path d="M113.87092,267.50438c1.52523-4.23638,2.82493-7.25947,3.68766-10.40251.9206-3.35383,3.34132-3.157,5.88519-3.04274,3.25867.14637,2.375,2.63274,2.402,4.44.08464,5.65713-.01563,11.317.06673,16.97415.03234,2.2212-.59368,3.36512-3.07726,3.38506-2.58743.02077-3.05068-1.31516-2.99439-3.44593a36.05281,36.05281,0,0,0-.57871-8.39674,22.47981,22.47981,0,0,1-1.27314,3.03528c-1.3505,2.26576-.57338,6.52721-4.15916,6.556-3.963.03175-2.97992-4.49942-4.46366-6.84334-.5882-.92916-.25013-2.38439-1.44626-2.84145,0,2.68323-.06212,5.40531.01937,8.1231.067,2.23293-.13995,3.85462-3.10571,3.819-3.10242-.03724-2.91971-1.95246-2.91393-4.01684.01583-5.65828-.031-11.3169.01955-16.97479.01385-1.55-.537-3.64136,2.03986-3.74067,2.21465-.08535,4.76309-.86734,5.83351,2.26714C110.93821,259.69517,112.19724,262.94573,113.87092,267.50438Z" fill="#cb5c29"/><path d="M209.84193,235.18958c0,3.79011-.07085,6.60141.02264,9.4072.07346,2.204-.53456,3.36071-3.05449,3.37023-2.61837.00989-2.98029-1.33829-2.95955-3.448.05725-5.82687-.01324-11.65493.03307-17.482.01239-1.56017-.53126-3.622,2.00139-3.8111,2.30434-.17207,4.79278-.539,5.87115,2.40923,1.19684,3.27206,2.40781,6.539,4.0573,11.01466,1.50492-4.06539,2.91123-7.10656,3.73517-10.29812.86691-3.35793,3.123-3.38588,5.74371-3.18751,3.09916.23455,2.49185,2.5846,2.50884,4.47525.05086,5.66048-.03406,11.3224.03916,16.98239.02856,2.20621-.54119,3.37212-3.07062,3.34051-2.55494-.03195-3.06464-1.29712-2.99722-3.4531a37.804,37.804,0,0,0-.53207-8.41535c-.91377,2.42437-1.79713,4.86086-2.75411,7.26806-.4811,1.21011-.85322,2.51033-2.62862,2.54939-1.973.04337-2.4721-1.24582-2.9962-2.72687C211.99067,240.72351,211.02237,238.29708,209.84193,235.18958Z" fill="#cb5c29"/><path d="M123.24154,233.60752c0,4.79039-.08984,8.08365.02867,11.36937.09348,2.59207-1.32622,2.95354-3.45324,2.97728-2.28523.02551-2.79918-1.11249-2.77949-3.09711.05942-5.99154.026-11.984.02988-17.97606.0011-1.69768-.10287-3.52243,2.29114-3.65019,2.10674-.11241,4.3404-.63816,5.55522,2.04354a61.35755,61.35755,0,0,0,5.96651,10.62323c0-3.17331.08193-6.34944-.02712-9.519-.08057-2.34221.83626-3.25069,3.20724-3.26029,2.52137-.01021,3.06463,1.21113,3.03418,3.41018-.0806,5.82458.023,11.65171-.05856,17.47625-.02081,1.4874.72858,3.68225-1.88541,3.82835-2.20581.12327-4.63521.84439-5.93889-2.156C127.63011,242.03722,125.70709,238.54573,123.24154,233.60752Z" fill="#cb5c29"/><path d="M171.97439,278.29549c-4.79894,1.45855-7.83547.368-9.4105-4.16292-.42711-1.22867-.83681-3.32785-2.76049-2.93175-1.71159.35242-1.05742,2.21613-1.02853,3.40857.066,2.72315-.4997,4.346-3.81948,4.28125-3.46136-.06743-3.02718-2.24636-3.02944-4.379-.006-5.63544.06909-11.27205-.02708-16.90578-.04147-2.42794.627-3.755,3.34183-3.59028,3.294.19991,6.61251-.252,9.88074.65707,5.048,1.404,8.16476,6.64142,5.13052,10.66076-3.2182,4.263-1.48132,7.00747.57981,10.34566A22.40012,22.40012,0,0,1,171.97439,278.29549Z" fill="#cb5c2a"/><path d="M112.93688,235.87691c-.08777,7.521-4.51482,12.28522-11.39935,12.26748-7.21306-.0186-11.49369-4.74415-11.46785-12.65981.02574-7.88284,4.42164-12.63274,11.608-12.54276C108.75544,223.03042,113.0295,227.94067,112.93688,235.87691Z" fill="#cb5c29"/><path d="M45.21446,236.22242c.0016,2.49051-.00613,4.981.00392,7.47148.00884,2.19009.30007,4.27751-3.12381,4.29494-3.32064.0169-3.12417-1.89462-3.30693-4.17226-.1722-2.146,1.44891-5.25992-2.71644-5.7361-3.86788-.44218-4.99365,1.25508-4.73577,4.84881.1655,2.30636.89568,5.28293-3.31476,5.03546-2.023-.11889-3.057-.66339-3.03522-2.85784.06264-6.30858.07942-12.61912-.0134-18.927-.03644-2.47629,1.14-3.07088,3.36078-3.07863,2.48779-.00867,2.97918,1.24581,3.11887,3.41129.12457,1.93108-1.23693,4.51118,1.70339,5.58973,3.40836,1.25023,5.50661-.31572,5.69571-4.13781.10769-2.17687-.78065-4.81071,3.08725-4.86645,4.24192-.06115,3.1763,2.867,3.25385,5.15549C45.28182,230.907,45.21286,233.5659,45.21446,236.22242Z" fill="#cb5c2a"/><path d="M47.17486,264.21926a13.02282,13.02282,0,0,1,.02337-2.826c.96552-2.54846-2.65543-7.40455,3.507-7.3359,5.78861.06447,2.65778,4.58539,3.16512,7.08878.5185,2.5584.10058,5.29817.18538,7.9556.07006,2.19543.79944,3.981,3.417,4.00882,2.57582.02742,3.48549-1.64422,3.543-3.88353.10245-3.98735.16526-7.97891.09706-11.96619-.039-2.28217.71836-3.33785,3.15749-3.267,2.16415.06294,3.60053.60733,3.49313,3.05683-.21818,4.97591-.10746,10.0016-.80709,14.91057-.63084,4.42626-3.64329,6.85276-8.32323,7.08109-4.7437.23145-8.59666-.92491-10.392-5.81168A24.3561,24.3561,0,0,1,47.17486,264.21926Z" fill="#cb5d2a"/><path d="M130.95033,266.38837l0-.4985c-.00385-13.117-.00779-13.07379,13.00181-11.88512,2.00662.18334,3.043.685,3.03259,2.89389-.01012,2.13648-.86207,3.06237-2.97251,2.92367a14.91667,14.91667,0,0,0-2.48989.01439c-1.49513.15328-3.81687-.64492-3.5668,2.05542.22148,2.39128,2.34068,1.147,3.61955,1.25862,2.0033.17487,4.06517-.19272,4.19631,2.86288.13406,3.12328-1.87493,2.86082-3.9296,2.97671-1.4854.08377-3.75282-.72824-3.88219,1.8322-.15386,3.04487,2.39071,1.98482,3.99579,2.19037,1.14673.14681,2.32888.01134,3.4777.14861,1.90029.227,1.662,1.75481,1.682,3.05764.0189,1.23517-.1973,2.36075-1.75747,2.50632-.49517.0462-.99392.05245-1.49.09076C130.95515,279.81309,130.95518,279.81342,130.95033,266.38837Z" fill="#cc5d2a"/><path d="M213.41609,254.15022c3.15252-.76948,4.40437.78221,5.17882,3.6874,1.49679,5.615,3.4698,11.10223,5.00321,16.70873.34037,1.24441,2.39358,3.39132-.33155,4.04591-1.97682.47481-4.89527,1.36984-5.85166-1.89979-.58937-2.01492-1.4701-2.98988-3.7624-3.04907-2.63326-.068-3.86173.92949-4.60612,3.37392-.92087,3.024-3.66486,1.92443-5.51109,1.58146-2.56619-.47667-.69254-2.47829-.40459-3.54139,1.5634-5.77194,3.47711-11.44856,5.06623-17.21422C208.97563,255.01782,210.25358,253.35265,213.41609,254.15022Z" fill="#cb5c2a"/><path d="M142.20742,235.49251c-.0062-.33247-.00631-.66493-.00619-.9974.00459-12.3669.00138-12.32261,12.66689-11.40394,2.16979.15736,3.42387.61612,3.36958,3.12275-.05062,2.33732-1.33394,2.75946-3.22416,2.6924a20.4199,20.4199,0,0,0-2.49166.026c-1.38492.12076-3.3282-.45526-3.34778,1.85545-.0195,2.302,1.90473,1.78126,3.30625,1.9206,1.97578.19643,4.60818-.78562,4.51585,2.85042-.08481,3.33992-2.5358,2.2918-4.322,2.51628-1.52654.19183-3.6628-.50757-3.52442,2.20333.11692,2.29,1.99,1.76434,3.38341,1.86153,1.32407.09238,2.65812.031,3.98529.092,2.01366.09246,2.32842,1.45483,2.33086,3.11412.0023,1.57048-.52517,2.56-2.25939,2.55759-3.98848-.00553-7.97714-.02311-11.96536.01-2.0819.01731-2.427-1.27222-2.41665-2.9461C142.22758,241.80933,142.21363,238.65088,142.20742,235.49251Z" fill="#cb5d2b"/><path d="M269.4,223.25274c3.37364-.66028,4.70509,1.0155,5.49137,3.80679,1.61866,5.7459,3.4802,11.423,5.13856,17.1583.34614,1.19705,1.90975,3.14033-.65469,3.49989-1.8699.26219-4.16849,1.2477-5.62572-1.52822-2.52822-4.81613-5.5672-4.775-8.24242.06117-1.34908,2.43884-3.46986,1.84793-5.218,1.4787-2.67644-.56528-1.16656-2.58434-.75434-3.98693,1.68323-5.72747,3.62937-11.3828,5.14255-17.15289C265.42643,223.733,266.80139,222.596,269.4,223.25274Z" fill="#cb5c2a"/><path d="M232.96551,235.60591c-.0036-.3328-.00247-.6656-.00379-.9984-.05023-12.73461-.05386-12.695,12.92307-11.50918,1.97431.18041,3.08506.63079,3.08061,2.86776-.00424,2.13281-.84714,3.08082-2.96374,2.94149a8.159,8.159,0,0,0-1.99237.02091c-1.4609.26991-3.83974-.90339-4.0138,1.617-.20648,2.99,2.41547,2.01981,4.02934,2.13945,1.874.13892,3.72151-.10543,3.712,2.71106-.00948,2.79721-1.83156,2.58388-3.71968,2.71479-1.60763.11148-4.1993-.90787-4.05724,2.11254.13654,2.90326,2.68992,1.6702,4.28645,1.91911,2.09406.32647,5.05342-.89078,4.89174,3.05942-.0603,1.47317-.33753,2.66382-2.14973,2.68451-.33263.0038-.66637.00551-.99749.03332C233.01972,249.00893,233.01975,249.00932,232.96551,235.60591Z" fill="#cb5c2a"/><path d="M256.03724,266.63485q-.00183-2.48389-.00119-4.96777c-.00012-8.13567-.00015-8.13567,9.18124-7.6038,7.20238.41723,10.43587,3.56162,9.77563,9.55367-.53049,4.81476-3.768,6.98936-8.09771,7.15279-3.31533.1251-4.49014,1.26027-4.05984,4.41214.3838,2.81108-.88408,3.74106-3.68648,3.70342-2.88354-.03867-3.20321-1.54626-3.13174-3.806C256.10609,272.26709,256.03849,269.44989,256.03724,266.63485Z" fill="#cc5d2a"/><path d="M70.42458,248.15993c-2-.03992-4.044-.03011-5.82461-1.05409-1.27112-.73094-3.91622-.84739-2.853-3.10848.78512-1.66967,2.04489-4.19654,4.96262-2.46394a9.514,9.514,0,0,0,1.86516.68784c1.46276.48868,3.28471,1.0134,3.92752-.73166.76231-2.06941-1.4814-2.09689-2.69736-2.72834-.29459-.153-.60226-.281-.90538-.41729-6.38239-2.86923-8.4737-6.489-6.29866-10.90309,2.16652-4.3968,9.16783-5.95124,14.04111-3.04971,1.03026.61342,2.77,1.08442,1.68345,2.91-.73931,1.24221-1.42835,2.78093-3.33344,2.43095-.80592-.14805-1.55665-.68735-2.357-.75388-1.21754-.1012-2.92865-.79483-3.34816,1.0002-.33,1.41184,1.23986,1.72568,2.245,2.22233a23.88689,23.88689,0,0,0,2.27756,1.01119c3.95245,1.46226,6.716,3.828,5.99231,8.49484C79.17991,245.71713,75.51044,248.145,70.42458,248.15993Z" fill="#cb5c29"/><path d="M33.60655,279.03517a11.49551,11.49551,0,0,1-5.54731-1.26746c-1.29908-.63993-3.7372-.96137-2.24323-3.37277.9728-1.57021,1.91352-3.83917,4.57606-2.21373a4.14774,4.14774,0,0,0,1.34847.623c1.58484.28188,3.83837,1.18874,4.48789-.56963.82463-2.23245-1.85676-2.23739-3.19467-2.88887-2.83391-1.38-6.07774-2.32614-6.95365-5.85359-.96221-3.875.44467-6.84078,4.06223-8.67276,3.4813-1.76293,10.00223-1.01284,11.77062,1.32451.56646.7487.78382,1.48188.0978,2.20479-.96611,1.01805-1.523,2.74382-3.49651,2.15255a13.0633,13.0633,0,0,0-2.87032-.76249c-1.06762-.06164-2.59668-.42361-2.84825,1.159-.18134,1.14077,1.068,1.51458,1.94782,1.92909.75069.35368,1.53408.63767,2.30158.956,5.46625,2.26676,7.4308,5.03462,6.46574,9.10772C42.58877,276.782,38.84183,279.16771,33.60655,279.03517Z" fill="#cb5b29"/><path d="M182.0098,266.63046c.02656-9.27171,8.30469-15.48776,16.05154-12.00469,1.43.643,3.55922,1.233,2.52063,3.45238-.71451,1.52687-1.68148,3.3054-4.21124,2.16837-2.54465-1.1437-5.01369-.71595-6.43278,1.95624a8.42576,8.42576,0,0,0,.22278,9.008c1.63076,2.46853,3.96258,2.8363,6.51085,1.309,2.43231-1.45779,3.35895.60342,4.27115,2.00885,1.2841,1.97837-.77627,2.66636-1.90612,3.2523a11.61479,11.61479,0,0,1-11.44968-.17267C183.77954,275.50421,181.99512,271.75745,182.0098,266.63046Z" fill="#cb5c2a"/><path d="M175.18916,238.10841c-.00369-1.83112-.07448-3.66568.0141-5.4925.11247-2.319-.37563-3.98379-3.21632-3.69316-2.48675.25444-3.12525-1.07956-3.03777-3.324.09585-2.4591,1.69845-2.47311,3.44065-2.47011,4.32732.00746,8.65525.0496,12.98172-.01016,2.25693-.03118,3.36378.812,3.35817,3.20763-.00565,2.41286-1.44451,2.762-3.27317,2.57028-3.10566-.32561-3.559,1.42381-3.472,3.95565.12,3.4916.04845,6.99069.0195,10.48624-.01869,2.25677.5966,4.63068-3.24593,4.68325-4.072.05568-3.57172-2.42854-3.566-4.91916Q175.19789,240.60539,175.18916,238.10841Z" fill="#cc5e2b"/><path d="M284.91166,238.16921c.00326-1.99163-.07355-3.987.02357-5.97389.11041-2.25857-.693-3.50648-3.11519-3.28225-2.33767.21636-3.28447-.79369-3.19772-3.17333.08641-2.37148,1.51714-2.61721,3.33375-2.60955,4.31433.01816,8.62912.03978,12.943-.00465,1.97107-.0203,3.1054.57075,3.10463,2.81656-.0007,2.08279-.74,3.19236-2.891,2.95749-3.15518-.34451-3.47312,1.5319-3.41077,3.99334.0966,3.81476-.05961,7.6361.04559,11.45041.06595,2.39132-.51433,3.62926-3.291,3.6582-2.94666.03072-3.78814-1.16919-3.57838-3.85988C285.03246,242.16209,284.90842,240.16081,284.91166,238.16921Z" fill="#cb5d2a"/><path d="M12.08709,223.1338c1.98986,0,3.98012.02495,5.96946-.00732,1.84267-.02988,3.26456.26681,3.26678,2.636.00183,1.96061-.48107,3.35512-2.73237,3.11609-3.48776-.37031-3.62789,1.76141-3.56189,4.33381.0978,3.812-.10274,7.63373.0594,11.44129.11652,2.73615-1.14785,3.34591-3.58379,3.32354-2.28088-.021-3.3641-.71-3.27775-3.13612.11791-3.31277.04086-6.63305.02169-9.95-.01758-3.04161.9007-6.66646-4.37053-6.10677-1.83826.19518-1.81111-1.51609-1.8469-2.86556-.0394-1.486.34323-2.69419,2.09752-2.72952,2.65178-.05342,5.30544-.014,7.95831-.014Z" fill="#cc5d2a"/><path d="M198.77586,236.24481c.00413,2.64854-.11054,5.30344.03613,7.94382.14912,2.6848-.68559,3.876-3.62187,3.82748-2.76074-.04558-3.30865-1.271-3.27058-3.65617.09513-5.95761.08124-11.91857-.00247-17.87659-.0308-2.19323.52655-3.42577,3.02171-3.38436,2.28057.03786,3.916.425,3.85107,3.21432C198.71277,229.62216,198.77172,232.93416,198.77586,236.24481Z" fill="#cd5f2c"/><path d="M57.16439,235.4184c-.00223,2.976-.08726,5.95525.02467,8.92707.08954,2.37727-.49967,3.60081-3.26455,3.65344-2.95993.05633-3.67207-1.1751-3.61776-3.82748.11844-5.78429.1079-11.574.00352-17.35885-.05051-2.79944,1.11663-3.7558,3.8605-3.73913,2.96754.018,3.05874,1.754,3.011,3.91321C57.11974,229.796,57.16663,232.60771,57.16439,235.4184Z" fill="#cc602c"/><path d="M54.24439,148.303c-3.26624-3.27092-8.27327-5.67207-5.67316-11.84953.21315-.50644-.97588-1.60324-1.51352-2.42556q1.03592-.01981,2.07209-.03992c2.20541-1.87881,4.83384-.963,7.12229-.663a179.15438,179.15438,0,0,1,23.64,4.92908,6.09548,6.09548,0,0,1,2.94286,1.71431c1.76631,3.53255-1.29938,5.11305-3.10968,6.92057-2.5983,2.59432-1.89227,3.54718,1.27913,4.36925,5.5772,1.44567,11.059,3.25127,16.68583,4.53817,4.83642.29663,9.55356-.75808,14.32236-1.18115a23.8917,23.8917,0,0,1,6.23054-.122c.47676.00087.96224-.00145,1.43927-.015,3.37615-.64325,7.12312-.15982,9.75171-3.16326,7.10279-.48716,13.67525,2.1492,20.47053,3.437,1.695,1.02042,3.44011,1.82126,5.49351,1.07757a21.682,21.682,0,0,1,3.32539-.35357,27.2816,27.2816,0,0,0,3.38483-.11331c1.7409.47343,3.59425.59006,5.18123,1.58133a3.14907,3.14907,0,0,1,.51589,1.97632c.10032.87241-.63715,2.34735.90183,2.31724,2.01233-.03943,3.91441.52516,5.85736.61372,2.85084.13,1.56343-1.65512,1.06388-2.97255a2.817,2.817,0,0,1,1.23246-2.506,8.41185,8.41185,0,0,1,4.28038-.95133,14.90246,14.90246,0,0,1,4.25664.05681,19.94885,19.94885,0,0,0,7.55487-.88964c10.67-1.48292,21.35638-2.81846,31.93224-4.84559,2.10634-.31178,3.98879-1.47934,6.14121-1.6608a4.76837,4.76837,0,0,1,2.70507,1.15611,3.02349,3.02349,0,0,1,.80035,3.394c-1.043.9543-2.37328,1.78071-.868,3.45434.99068,1.10151,2.06432,2.11106,3.1084,3.15948a6.26313,6.26313,0,0,1,1.78468,3.0193c-.49937,3.31985-2.4415,2.50789-4.26827,1.35809-1.95171-1.22846-3.57954-2.916-5.63366-4.04013-8.31653-4.55116-11.24089-3.37424-13.85225,5.66236a2.21226,2.21226,0,0,1-1.08624.88282c-45.85521-.01571-91.71643-.4568-137.56222.19239-15.26041.2161-30.544.1824-45.80931.67789-2.11139.06854-4.35013.469-6.29132-.89836,1.82639-1.73632,1.44483-4.93809,4.07406-6.14213.794,3.42662,2.89119,4.45653,6.40038,4.37967,10.56395-.23142,21.13624-.07177,32.50086-.09063-3.27932-2.45487-6.38244-2.3669-9.42149-2.58479-2.83734-.20341-5.74187-.3729-6.85444-3.75939,2.08355-3.864,4.82524-.41405,6.60946-.59073C56.10178,154.541,56.87031,150.71181,54.24439,148.303Z" fill="#4d9b85"/><path d="M252.03853,144.93834c7.94815,5.33754,13.5124,12.69746,17.875,21.07723a9.50328,9.50328,0,0,1-4.80983.89479q-23.542-.02018-47.084-.02056c-1.4714-.00112-2.99466.20836-4.302-.76171l.41426-.26522c2.0376-1.98518,4.64682-1.6014,7.09-1.55881,12.59981.21956,25.19789-.0466,37.79659-.05027,1.62972-.00049,3.31216.35724,5.62758-.71019-3.89419-5.94557-8.12357-11.22311-14.45731-14.49729a4.81527,4.81527,0,0,0-5.59014.69139c-1.265,1.0439-2.34378,2.41357-4.16488,2.56351-1.20387-.30492-1.35318-1.30047-1.51025-2.29154a12.41168,12.41168,0,0,0-.57091-5.33187c.162-1.48538.63213-2.72911,2.36377-2.96228,1.929,1.89589,3.63146-.04886,5.43493-.33611C248.7718,141.47572,251.00709,142.21436,252.03853,144.93834Z" fill="#538b7c"/><path d="M149.01992,65.06593c.98245-1.45911,2.0576-2.79678,3.97278-3.034a3.23741,3.23741,0,0,1,.02192.85817c1.50616,4.32772,2.96906,8.65879.84985,13.2202a2.08576,2.08576,0,0,1-2.39178.14969C147.10535,71.86525,146.73832,70.18649,149.01992,65.06593Z" fill="#97cabd"/><path d="M181.849,50.03651c-.97462-3.55544-3.353-5.57183-4.96958-8.22245,4.29024-1.55419,4.03887,7.179,9.15336,3.58411Z" fill="#9d9a91"/><path d="M239.09257,145.26475c1.7238.95675,2.49483,2.11337.79434,3.78838a3.23719,3.23719,0,0,1-2.91678.81586c-3.00047-1.17762-2.83586-3.93854-3.38651-7.14839.053,2.9059,1.76733,5.30627-.54617,7.25588l-2.2939-.9653a10.364,10.364,0,0,1-3.73864-3.67577c-.96832,1.516.11987,3.32246-.994,4.65109-.32482.53755-.591,1.49669-.983,1.55129-10.99252,1.53093-21.81888,4.44856-33.0447,4.06356a2.18633,2.18633,0,0,1-.71955-1.90419c.31024-3.751,3.23816-7.09961,1.69691-11.11a10.37375,10.37375,0,0,0-3.21547-.09515c-3.13862,1.34693-1.84417,5.06036-3.75627,7.056-.69808,1.1218-2.26995,1.5081-2.4941,3.015a4.613,4.613,0,0,1-1.86833,4.44585l-4.51315.09419c-3.12252-2.2313-2.79538-6.19263-4.85466-9.09394-2.28072,2.64122-2.131,7.05558-5.61913,9.1119-1.78912,1.15918-3.22476.68309-4.40956-.95348-1.30968-.64892-1.38039-1.83939-1.35921-3.06365.55117-1.99-1.30464-2.02615-2.28859-2.773-2.45026-1.64022-.89975-5.74709-4.24228-6.8158a9.5039,9.5039,0,0,0-3.21073.02859c-1.71268,2.11772.59814,4.02469.30884,6.051a10.50257,10.50257,0,0,0,.81324,2.57112c.19578,1.51947,1.42782,3.32814-1.112,4.10086q-11.198-2.069-22.396-4.138c-4.5304-2.00115-9.67309-10.23168-9.34025-14.94846,14.53918.545,28.95589-1.16072,43.4-2.36229a2.73516,2.73516,0,0,1,1.86038.96314,17.55035,17.55035,0,0,1,2.06591,3.87773,21.151,21.151,0,0,1-.088-6.18c.33151-1.21383.513-2.56514,2.26119-2.47908.30656,2.04491,1.84909,2.21132,3.36939,1.97937a277.38837,277.38837,0,0,1,38.92387-3.36072c.2877-.00305.57219-.30933.85817-.47417.92222-1.38324,2.30625-1.60072,3.81216-1.51664a3.50038,3.50038,0,0,1,2.98976,1.44869c3.91539,1.767,8.09111.42115,12.08927,1.00967,5.41138.79651,11.147-.076,16.1355,2.99985,1.17439,3.17509-.45695,5.97648-1.18477,8.89821-1.30661,1.086-1.65545,3.59485-3.72591,3.33444-1.40479-.17672-1.10909-2.12533-1.46385-3.32782-.6587-.4864-1.51059-.97-1.9451-.00589C238.29213,143.02482,237.52706,144.33057,239.09257,145.26475Z" fill="#97cbbd"/><path d="M168.90243,130.99965c-.97664.81129-.95985,1.94978-1.00961,3.06634a5.60586,5.60586,0,0,1-3.97059,1.99863q-.55863-.62272-1.11831-1.24612.10248-1.90773.20693-3.81411a2.4936,2.4936,0,0,1-.47128-1.3932c.37525-6.61884.38533-6.635-6.1459-8.32593-4.33473-1.12224-8.71928-2.07106-12.82017-3.95155-6.04311-2.7711-7.085-5.95273-3.946-11.91175,1.00371-1.90546,2.48637-3.53776,3.163-5.623a4.70736,4.70736,0,0,1,.864-1.17151c2.55567-1.70372,5.649-1.78229,8.44278-2.77441,1.20154-.42669,2.8083-.55125,2.93669-2.23022.11635-1.52151-1.15169-2.27974-2.24983-3.02675-.96118-.65385-2.04947-1.083-3.06243-1.64507-5.61359-3.11512-6.04905-6.46473-1.41121-10.84172,1.0804-1.01962,2.12656-2.1295,3.788-2.12734q.88405.06368,1.767.12785c5.46417,2.35719,11.46929,3.03752,16.88538,5.62916,6.46534,3.09371,6.89992,5.85224,1.01908,9.965-2.5631,1.79249-5.55239,2.96514-8.1863,4.66944-2.684,1.73667-5.095,3.79116-4.60876,7.5803.46381,3.61442,3.4773,4.03564,6.06816,4.9948,1.08507.40169,2.2142.68254,3.31125,1.05391q14.41259,4.87887,3.9797,16.167A17.68953,17.68953,0,0,0,168.90243,130.99965Z" fill="#b3d7cd"/><path d="M245.89578,141.98391c-2.48855-3.34965.54129-5.96525,1.184-8.89835,2.06249-2.67438,1.29739-6.23057,2.7098-9.39456,2.94184,2.23526,1.249,6.9739,5.08154,8.25214-1.89909,2.21512.71523,4.348.18242,6.35667-.61461,2.317-1.979,4.435-3.01637,6.639Q248.96783,143.4609,245.89578,141.98391Z" fill="#398171"/><path d="M215.9389,128.99659q-1.943.073-3.88556.14678c-.823-.07294-1.64618-.20724-2.47-.21081-6.85291-.02965-6.85294-.02236-4.29018-6.84585,1.53305,1.01893,1.17974,4.133,3.7631,3.72242,2.70373-.4297,1.97214-3.14445,2.57109-4.82388a70.652,70.652,0,0,0,1.89625-8.13557c.0134-.05909.29027-.05835.86145-.15918.8677,3.37629,1.74736,6.799,2.627,10.22174C219.06407,125.36554,217.88386,127.24854,215.9389,128.99659Z" fill="#408676"/><path d="M224.82041,103.9927c1.146-1.22725-1.45157-6.05984,3.73783-3.5964,1.54762.73466,2.10586-1.99522,2.71129-3.15936,2.47586.37855-.57861,6.42852,4.53356,4.04158q.62052,2.36459,1.24176,4.72905C233.06518,104.76142,228.72027,105.7278,224.82041,103.9927Z" fill="#559686"/><path d="M215.9389,128.99659q.536-3.041,1.0726-6.08313c1.77043-1.512.13379-4.30821,2.23325-5.72611,2.70742,3.05969.9151,8.10417,4.60255,10.76669a.61347.61347,0,0,1,.334.61906q-.06556.3644-.17719.36441-2.57349.06879-5.14764.13814Q217.397,129.03665,215.9389,128.99659Z" fill="#559787"/><path d="M224.00407,128.93751q-.07869-.49107-.15593-.983c.71847-3.00909,1.4378-6.01772,2.306-9.649C230.15435,127.91121,229.91852,128.85787,224.00407,128.93751Z" fill="#3b8372"/><path d="M96.78864,157.10947q-9.996-2.74063-19.98894-5.49235c-.78659-.21813-1.531-.58863-3.28716-1.278l9.99275-9.26452c.18729-3.49022,2.69289-5.25412,5.21494-7.00577.978-1.64089,1.55438-3.56858,4.188-3.40583,6.09288.37647,12.04635-1.00769,18.05064-1.736.49255-.29052,1.26962.00181,1.16645.24917-1.92079,4.60512.68494,9.85983-2.26819,14.37165-2.78415,4.25364-4.66129,9.08882-8.6121,12.58115C99.82637,157.383,98.50782,157.83383,96.78864,157.10947Z" fill="#f8a325"/><path d="M143.85622,100.21281c-.24016,2.80888-2.24184,4.741-3.567,6.98706-2.34956,3.98228-.98341,6.5854,2.82728,8.34571,4.52451,2.09,9.40667,3.05064,14.19239,4.3073,1.2737.33445,2.54915.66341,3.81626,1.02158,3.76017,1.06286,6.17268,2.69351,3.14491,6.91775a13.82913,13.82913,0,0,0-1.25932,3.2122c-2.96777.14474-5.33179-1.65624-7.96022-2.56174-5.72895-1.97369-11.35829-4.23663-17.02809-6.3809-3.06429-3.70854-7.8682-4.46526-11.69358-6.88491-1.76345-1.11543-3.95529-1.5238-5.5524-3.34859,2.19893-1.85961,5.27637.305,7.26319-1.72864,2.85388-2.6767,5.84536-5.1881,8.555-8.04469C138.40047,100.15106,140.74512,98.041,143.85622,100.21281Z" fill="#65a99a"/><path d="M96.78864,157.10947a4.67441,4.67441,0,0,0,3.78731-1.9212,60.9196,60.9196,0,0,0,10.4931-18.91833c-1.7335-1.1828-2.21871,1.33507-3.52953.85907.17314-3.2119,4.4744-4.5774,3.419-8.20179,2.12158-1.5368,3.57158-.93125,4.69176,1.321,1.16869,2.34985,2.49365,4.62195,3.75144,6.92994a74.57625,74.57625,0,0,0,9.34172,14.95c.53839,1.36438,1.5461,2.86246-1.20758,2.94431-2.44252.07262-4.88047.29926-7.32044.4579.92482-5.21713-3.21544-8.41219-5.01309-12.54309a20.38668,20.38668,0,0,0-.496-3.07548,9.33249,9.33249,0,0,1,.33389,2.31982c.46232,5.01157,1.27816,10.09805-3.34118,13.874C106.765,156.97572,101.83946,157.97382,96.78864,157.10947Z" fill="#ec8924"/><path d="M55.14214,131.06266c-4.62813.574-6.3878-.82469-4.42184-5.66667,1.2082-2.9757,1.67732-6.25159,2.80923-10.69041l2.88719,10.18508c-.29976-3.88614,3.92682-1.21379,4.64254-3.18157a74.10463,74.10463,0,0,0,1.88031-7.525c2.60589,3.45781,2.07,7.234,3.79082,10.09722,1.94862.10034.706-2.64581,2.89951-2.51362.10864,3.14426,3.50718,5.78984,1.27354,9.42592C65.62767,133.7995,60.37222,133.9585,55.14214,131.06266Z" fill="#39806f"/><path d="M55.14214,131.06266q7.88123.06468,15.76188.13013c1.33043.88285,2.80312.69068,4.26719.5638a2.14146,2.14146,0,0,1,2.88347.24331q5.33334,1.03375,10.66612,2.06822a21.11918,21.11918,0,0,1-5.21687,7.00663c-11.30072-3.12248-22.67233-5.9073-34.37447-7.08659-.21391-.6604-2.55637-1.42776.01952-1.94639C51.12916,131.643,53.30867,132.43056,55.14214,131.06266Z" fill="#96cabd"/><path d="M78.05468,131.9999q-1.442-.12107-2.88369-.24271c-.21655-1.69532.5129-3.14412,1.2491-4.81308C78.33867,128.27766,78.02487,130.1986,78.05468,131.9999Z" fill="#37796a"/><path d="M143.85623,100.21281a10.75924,10.75924,0,0,0-8.677,5.51745,8.59012,8.59012,0,0,1-7.1398,4.36867,24.34956,24.34956,0,0,1-20.09025-6.1223c-3.6831-3.245-8.5746-4.00094-12.8629-6.00465,11.0294-1.78142,21.57889-4.55988,28.95548-13.93412,7.7081-.41793,13.9239,2.89958,19.13121,8.14657a5.27172,5.27172,0,0,1,.86856,6.81682Z" fill="#97cbbd"/><path d="M144.04154,99.00125c-.47689-6.1728-4.43763-9.203-9.81949-11.06743-3.43159-1.18883-6.78964-2.5899-10.18046-3.89588q-.01338-.48852.00228-.97662c3.94107-2.58075,8.14241-4.935,10.017-9.61581,1.46735-3.664,5.75128-3.77341,7.95446-4.0732,3.50917-.47752,4.40068-3.48513,7.00448-4.30645-.95429,4.19724,1.03914,7.5634,3.07767,10.9166-1.31176,1.46786-2.51461,3.05636-3.95975,4.38026-3.24958,2.977-2.12213,5.053,1.18853,6.80842,2.16676,1.1489,4.56955,1.99667,6.45676,3.49555,2.94927,2.34242,2.40815,5.26115-1.16546,6.17547C151.14554,97.73048,147.747,99.19155,144.04154,99.00125Z" fill="#cbe5dc"/><path d="M111.27184,41.90824c4.11007-.0021,6.02965,2.10776,6.478,5.41923.42678,3.15242-2.62559,5.99517-5.99414,5.8686-3.57386-.13428-5.678-2.18151-5.67443-5.63117A5.25287,5.25287,0,0,1,111.27184,41.90824Z" fill="#eb755c"/><path d="M103.41492,75.812q2.43491,1.72655,4.8698,3.45312c-.89883.36459-1.05317,3.72326-2.82746.65357a32.94569,32.94569,0,0,0-2.6111-3.43912Z" fill="#a69d93"/><path d="M50.94863,156.96235c1.72613,3.32742,4.83882,3.03343,7.83261,2.95372,4.69337-.12495,8.81909.91263,12.15848,6.0381-4.74216,0-8.78351-.0106-12.82479.00219q-12.71215.04025-25.42425.10075c-6.65572.029-6.6557.03178-4.56327-6.09849l-.03569.04977c2.63094-3.56571,4.82884-7.47028,9.3801-9.1974,5.14347-1.95187,9.1892-1.01312,12.61822,3.40024l.107,2.01345A.84272.84272,0,0,1,50.94863,156.96235Z" fill="#445c46"/><path d="M50.94863,156.96235q-.376-.36882-.75179-.73767c2.11747-2.25011,1.67658-5.80752,4.04863-7.92425.74972-.82084,1.50051-1.6443,2.32978-2.5538,1.07089,2.10455-.99036,3.693-.27417,5.55077,1.5266.29459,1.84161-1.72106,3.2139-1.70043.07224.11839.26548.29976.22975.39652-.723,1.95781-1.47221,3.90591-2.37886,6.28237,1.75016-.47532,3.1244-.84852,4.49865-1.22173C58.883,159.83208,54.80351,157.67151,50.94863,156.96235Z" fill="#eaa229"/><path d="M50.09,154.21123c-6.85829-5.17615-13.665-4.227-18.88765,2.68183-.90224,1.19355-1.67921,2.46892-3.11064,3.11527,3.12181-7.60321,8.52535-11.56784,15.19125-11.00755C46.60059,149.27963,49.47366,150.31736,50.09,154.21123Z" fill="#4f8576"/><path d="M159.96861,265.17913c-.43788.04721-1.20563-.86694-1.21941-2.70436-.01311-1.7463.53055-2.848,2.49471-2.76945,1.6725.06691,2.86832.65822,2.90569,2.55115C164.18588,264.09352,163.11254,264.87642,159.96861,265.17913Z" fill="#fbdf83"/><path d="M106.10335,235.35348c-.31107,3.1139-.401,6.934-4.52781,7.03257-3.70773.08853-4.63868-3.20658-4.60591-6.46106.03261-3.2384.15938-6.84789,4.46381-6.9892C105.47985,228.80293,105.81582,232.20037,106.10335,235.35348Z" fill="#f9dd82"/><path d="M213.59029,260.55092c.51063,2.11982.981,3.842,1.32733,5.58878.24316,1.22638.07527,2.37591-1.55359,2.408-1.49314.02943-2.03359-.76343-1.68284-2.21174C212.12908,264.48651,212.14078,262.48864,213.59029,260.55092Z" fill="#f4ca75"/><path d="M269.12742,231.0285c1.70866.25565,1.47226,1.75455,1.65088,2.795.19893,1.15895,1.26839,2.55246-.22768,3.53831a2.05185,2.05185,0,0,1-1.84624.00974c-1.449-.9645-.56779-2.30753-.30513-3.51344C268.60546,232.91126,268.88,231.97934,269.12742,231.0285Z" fill="#fde187"/><path d="M265.561,259.74131c1.35209.0813,3.05179.46041,3.04517,2.66017-.00667,2.22343-1.52086,3.18238-3.57948,3.34545-1.84255.14592-2.21937-1.05411-2.18756-2.54755C262.874,261.56312,262.5317,259.66229,265.561,259.74131Z" fill="#fad87f"/><path d="M239.92621,152.03363c7.28515-7.61608,9.77681-7.59679,17.61915.13638,5.82639,5.74525,7.859,8.522,9.78561,13.69412-17.89294,0-35.54691,0-53.19992-.00063-.51637-9.75089,4.364-13.01223,13.147-8.7779a27.18855,27.18855,0,0,1,7.69981,5.24755c.87014.878,2.28262,2.862,2.90775-.309C237.095,158.39344,237.35305,154.977,239.92621,152.03363Z" fill="#445c46"/><path d="M166.63946,157.121c1.22817-4.52044,2.80711-8.86875,6.32259-12.65209,1.41827,4.31609,2.78473,8.47449,4.1512,12.6335q-.4185.82879-.837,1.65635a1.29464,1.29464,0,0,1-1.09712.63521,1.8356,1.8356,0,0,1-1.2567-.61846c-1.86363-3.1444-3.36248-2.4261-4.71058.39311a1.31068,1.31068,0,0,1-1.81568-.36021Z" fill="#f1bc59"/><path d="M167.39615,158.80839l1.51629.38981a7.81676,7.81676,0,0,1,6.13777.017q.61211-.22683,1.22512-.455c2.07521.04573,3.40478,1.14493,2.54111,3.10548-.99528,2.25924-3.3899,2.34059-5.42958,1.68655-1.3165-.42218-2.21876-1.98178-3.96629-.86483-1.18687.75857-2.74522,1.9935-3.84305.06765C164.51361,160.88867,165.9086,159.72736,167.39615,158.80839Z" fill="#8f5829"/><path d="M111.699,156.10562a46.028,46.028,0,0,0,2.49541-14.95556c2.433.63472,1.27923,3.42149,2.77379,4.61943.64912,3.32621,3.586,6.14224,2.21711,9.91985Z" fill="#57210f"/><path d="M239.92621,152.03363a23.39027,23.39027,0,0,1-2.04021,9.9903q-1.01877-1.04388-2.03683-2.08817c-.676-1.3009-1.95182-2.3338-1.8-4.00955,1.15515-2.12268.07039-5.19391,2.79877-6.65563q1.51961-.10877,3.03911-.21748Q239.90652,150.54341,239.92621,152.03363Z" fill="#3b6956"/><path d="M119.18535,155.68934a31.024,31.024,0,0,1-3.30609-9.64155,2.9794,2.9794,0,0,1,.17109-3.13007c1.96012,2.527,4.02857,4.97888,5.84725,7.60389,1.54887,2.23563-.82351,3.43038-1.683,5.0092Q119.70082,155.60968,119.18535,155.68934Z" fill="#df5a23"/><path d="M191.97168,154.14948c.00375.48572.0075.97144.01139,1.45453-1.99907,2.25848-4.61608,1.23659-7.02512,1.31982-1.33991-1.84073-2.51174-3.697-.53953-5.84694C188.99959,149.0893,190.32453,149.62886,191.97168,154.14948Z" fill="#95c9ba"/><path d="M226.01093,149.9865a7.47489,7.47489,0,0,1-.68187-1.81532c-.23242-2.30163-1.69892-5.63631.96181-6.447,1.99927-.60912,2.2788,2.90328,2.99346,4.80676a16.10111,16.10111,0,0,0,1.46045,2.48005C228.9582,148.32753,228.4942,154.058,226.01093,149.9865Z" fill="#2b6358"/><path d="M236.84792,149.27058c-1.25534,2.06993-.03413,4.84174-1.90843,6.73626-2.54491-.23452-1.34526-1.68679-.93684-2.88176q-.48285-1.57446-.96544-3.14876c.00024-2.60684.00024-5.21383.00024-8.07774C235.32552,143.994,235.40449,146.99549,236.84792,149.27058Z" fill="#eba42f"/><path d="M159.10231,156.98528l-4.29927.132c-2.3812-.66267-1.69645-2.548-1.66947-4.17657,1.408-3.10307,3.51916-3.58175,6.268-1.67586C161.30907,153.275,161.63391,155.20542,159.10231,156.98528Z" fill="#96cbbe"/><path d="M234.00265,153.12508q.46833,1.4409.93675,2.88176.45541,1.96406.91021,3.92849c-2.98317-1.53922-4.27012-4.24723-5.38366-7.39988Z" fill="#d6a132"/><path d="M154.19682,152.75994c-.39386,1.5355-.63222,3.0493.60674,4.35718-1.58222,1.26633-2.75766.78564-3.66424-.85133,1.46717-1.51328-.0427-2.85274-.25055-4.26857C152.52224,149.94848,153.387,151.23523,154.19682,152.75994Z" fill="#794c37"/><path d="M159.10231,156.98528a4.92882,4.92882,0,0,0-.13443-5.06765c1.16884-1.99134,2.308-.831,3.44994.0325a5.57526,5.57526,0,0,0-.18891,4.215C161.42118,157.33464,160.19554,156.90668,159.10231,156.98528Z" fill="#7c503a"/><path d="M184.84859,151.96259c-.8275,1.67325-.42275,3.31932.10942,4.96191q-1.66542.04122-3.33117.08405a6.59254,6.59254,0,0,0,.26639-4.98355C182.84286,150.32311,183.82762,150.28526,184.84859,151.96259Z" fill="#7d503b"/><path d="M239.09258,145.26475c-3.14993.27011-2.07208-1.92873-1.76524-3.335.30464-1.39625.656-3.59812,2.22925-3.524,2.21943.10453,1.0725,2.24738,1.15,3.5846Q239.899,143.62775,239.09258,145.26475Z" fill="#376f64"/><path d="M184.84859,151.96259a2.74222,2.74222,0,0,0-2.95528.06243c-1.51408-4.18844,3.24758-.98836,3.56074-3.02561a2.403,2.403,0,0,1,1.804-.78669c2.009-.01325,4.22972.32839,4.35565-2.71331a5.85094,5.85094,0,0,1,2.415-4.148c.87066-.536,2.2097-1.11828,1.67339.63779-1.23782,4.05272-1.25835,8.49174-3.73047,12.15952C190.05912,151.91577,188.24076,149.37518,184.84859,151.96259Z" fill="#8c4f36"/><path d="M163.92223,136.06462c.42825-2.44676,2.31432-1.99657,3.97143-1.99915.25247,3.27707-.35083,6.61809.81542,9.92479C166.175,141.8202,164.30687,139.38867,163.92223,136.06462Z" fill="#c6e3da"/><path d="M194.02871,141.35143q-.5799,2.39244-1.15984,4.78486a3.789,3.789,0,0,1-4.83624.35042c-1.56273-2.11095-.44354-3.71744.9972-5.26294Z" fill="#d7735d"/><path d="M162.41782,151.95014q-1.72472-.0155-3.44969-.03174c-1.80357-.91-3.42591-.8015-4.77271.845q-1.65167-.386-3.30639-.76567a2.02777,2.02777,0,0,1-.72414-2.17716,2.16384,2.16384,0,0,1,1.45294-1.41923,18.707,18.707,0,0,1,5.61026.38449,9.7434,9.7434,0,0,1,1.91062.92177C159.98134,150.82143,163.77488,147.6187,162.41782,151.95014Z" fill="#c57864"/><path d="M150.10881,141.78781l4.86137-.03234c2.4242.89916,1.707,2.7088,1.28557,4.43581a4.29207,4.29207,0,0,1-5.16735.42623C150.0061,145.16405,148.91935,143.70628,150.10881,141.78781Z" fill="#db6a55"/><path d="M156.15948,146.15615c-.21369-1.51545.04485-3.15883-1.19012-4.399,1.43173-1.39387,1.85541-.39861,2.20676.90288.63593,2.3558,1.308,4.70185,1.96374,7.04979q-1.05514.02211-2.108.04856A2.89114,2.89114,0,0,1,156.15948,146.15615Z" fill="#865e47"/><path d="M150.10881,141.78781q.52123,2.23879,1.04242,4.47759a2.12529,2.12529,0,0,1,.21507,2.84418q-.60073.35625-1.20146.71174c-.58968-2.491-1.346-4.95692-1.71319-7.47954C148.187,140.52353,149.26864,141.15465,150.10881,141.78781Z" fill="#885039"/><path d="M189.02983,141.22377q-.55677,2.41683-1.11356,4.83369c.22634,1.22423.1831,2.34085-1.17088,2.93426q-.64682.00395-1.29248.0078c.52991-2.33038,1.02959-4.66779,1.60019-6.98777C187.32162,140.92,187.88419,140.262,189.02983,141.22377Z" fill="#874e39"/><path d="M116.05035,142.91772q-.085,1.565-.17051,3.13007-.84354-2.44912-1.68565-4.898c-.14109-1.079-.48326-2.17635.32607-3.266C115.643,139.42079,115.70523,141.21419,116.05035,142.91772Z" fill="#923b18"/><path d="M103.012,235.351c-.101.9463.13219,2.12758-1.2035,2.368-1.33854.241-1.68138-.72834-1.732-1.78858-.05488-1.14847-.17337-2.554,1.40246-2.67493C102.72561,233.15986,102.96224,234.30057,103.012,235.351Z" fill="#d2e9e2"/><path d="M175.05021,159.2152a5.93083,5.93083,0,0,1-6.13719-.01822c.0177-.64468.02066-1.29146.05734-1.93632.089-1.56571.73763-3.14281,2.16854-3.48862,1.98442-.47955,1.74393,1.86592,2.59035,2.86933A12.40208,12.40208,0,0,1,175.05021,159.2152Z" fill="#eb694d"/><path d="M186.74539,148.99172q.58595-1.46745,1.17137-2.93457,2.47572.03981,4.95226.079C192.74111,151.19287,189.77477,150.1599,186.74539,148.99172Z" fill="#97c9b8"/><path d="M151.3663,149.10958q-.10773-1.42264-.21527-2.84474,2.503-.05487,5.007-.10978c1.02817,1.02523.92666,2.32158.87246,3.60506C155.1116,149.81936,153.15,150.24188,151.3663,149.10958Z" fill="#9ebbaa"/></g></g></svg>